<svg xmlns="http://www.w3.org/2000/svg" xmlns:xlink="http://www.w3.org/1999/xlink" data-name="Layer 1" viewBox="0 0 1400 1000"><defs><linearGradient id="a" x1="2448.79" x2="2540.02" y1="2441.07" y2="2441.07" gradientTransform="matrix(1 0 0 -1 -2121.39 2720.3)" gradientUnits="userSpaceOnUse"><stop offset="0" stop-color="#4058a6"/><stop offset=".25" stop-color="#415aa8" stop-opacity=".97"/><stop offset=".49" stop-color="#4562ad" stop-opacity=".89"/><stop offset=".72" stop-color="#4c6fb5" stop-opacity=".74"/><stop offset=".96" stop-color="#5680c0" stop-opacity=".54"/><stop offset="1" stop-color="#5884c3" stop-opacity=".5"/></linearGradient><linearGradient id="b" x1="2448.79" x2="2548.02" y1="2486.62" y2="2486.62" gradientTransform="matrix(1 0 0 -1 -2170.94 2761.85)" xlink:href="#a"/><linearGradient id="c" x1="2448.79" x2="2528.07" y1="2464.17" y2="2464.17" gradientTransform="matrix(1 0 0 -1 -2138.51 2749.37)" xlink:href="#a"/><linearGradient id="d" x1="2448.79" x2="2548.02" y1="2397.15" y2="2397.15" gradientTransform="matrix(1 0 0 -1 -2081.46 2672.37)" xlink:href="#a"/><linearGradient id="e" x1="2448.79" x2="2557.07" y1="2420.25" y2="2420.25" gradientTransform="matrix(1 0 0 -1 -2109.09 2690.95)" xlink:href="#a"/><linearGradient id="f" x1="2448.79" x2="2540.02" y1="2349.99" y2="2349.99" gradientTransform="matrix(1 0 0 -1 -2030.31 2629.22)" xlink:href="#a"/><linearGradient id="g" x1="2448.79" x2="2527.07" y1="2373.09" y2="2373.09" gradientTransform="matrix(1 0 0 -1 -2046.93 2658.79)" xlink:href="#a"/><linearGradient id="h" x1="2448.79" x2="2548.02" y1="2306.07" y2="2306.07" gradientTransform="matrix(1 0 0 -1 -1990.38 2581.29)" xlink:href="#a"/><linearGradient id="i" x1="2448.79" x2="2557.07" y1="2329.17" y2="2329.17" gradientTransform="matrix(1 0 0 -1 -2018.01 2599.87)" xlink:href="#a"/><linearGradient id="j" x1="4222.57" x2="4446.69" y1="259.25" y2="259.25" gradientTransform="matrix(-1 0 0 1 4750.12 0)" xlink:href="#a"/><linearGradient id="k" x1="3535.78" x2="3759.9" y1="441.26" y2="441.26" gradientTransform="matrix(-1 0 0 1 4750.12 0)" xlink:href="#a"/><linearGradient id="l" x1="3552.41" x2="3643.64" y1="469.91" y2="469.91" gradientTransform="matrix(1 0 0 -1 -2445.94 939.82)" xlink:href="#a"/><linearGradient id="m" x1="3552.41" x2="3600.69" y1="493.01" y2="493.01" gradientTransform="matrix(1 0 0 -1 -2402.99 986.03)" xlink:href="#a"/><linearGradient id="n" x1="-78.34" x2="12.89" y1="403.28" y2="403.28" gradientTransform="translate(1089.01)" xlink:href="#a"/><linearGradient id="o" x1="-78.34" x2="-30.06" y1="426.38" y2="426.38" gradientTransform="translate(1089.01)" xlink:href="#a"/><linearGradient id="p" x1="672.07" x2="882.19" y1="213.11" y2="213.11" gradientUnits="userSpaceOnUse"><stop offset="0" stop-color="#f26f34"/><stop offset=".13" stop-color="#f27137" stop-opacity=".98"/><stop offset=".26" stop-color="#f37841" stop-opacity=".94"/><stop offset=".39" stop-color="#f48452" stop-opacity=".85"/><stop offset=".52" stop-color="#f59469" stop-opacity=".74"/><stop offset=".64" stop-color="#f7a986" stop-opacity=".59"/><stop offset=".77" stop-color="#fac3ab" stop-opacity=".41"/><stop offset=".89" stop-color="#fce1d5" stop-opacity=".21"/><stop offset="1" stop-color="#fff" stop-opacity="0"/></linearGradient><linearGradient id="q" x1="681.01" x2="727.41" y1="246.91" y2="246.91" xlink:href="#a"/><linearGradient id="r" x1="689.37" x2="719.05" y1="246.91" y2="246.91" xlink:href="#a"/><linearGradient id="s" x1="735.19" x2="795.65" y1="240.74" y2="240.74" xlink:href="#a"/><linearGradient id="t" x1="680.01" x2="759.04" y1="163.94" y2="163.94" xlink:href="#a"/><linearGradient id="u" x1="680.01" x2="728.29" y1="184.83" y2="184.83" xlink:href="#a"/><linearGradient id="v" x1="765.42" x2="795.65" y1="218.64" y2="218.64" xlink:href="#a"/><linearGradient id="w" x1="665.07" x2="889.19" y1="213.11" y2="213.11" xlink:href="#a"/></defs><polygon fill="#f0f3f8" points="1201.92 417.19 888.29 417.19 888.29 200.64 147.53 200.64 147.53 517.45 461.16 517.45 461.16 593.26 287.34 593.26 287.34 860.07 1028.1 860.07 1028.1 734 1201.92 734 1201.92 417.19"/><rect width="313.51" height="209.52" x="938.96" y="165.33" fill="#f0f3f8"/><rect width="51.52" height="296.43" x="177.97" y="563.64" fill="#f0f3f8"/><rect width="245.16" height="22.71" x="1007.31" y="604.9" fill="#a7b8de" rx="3"/><rect width="216.67" height="213.97" x="1021.56" y="627.61" fill="#a7b8de" rx="3"/><rect width="245.16" height="22.71" x="979.73" y="604.9" fill="#c4cee5" rx="3"/><path fill="#e6eaf5" d="M1207.94,630.61v208a3,3,0,0,1-3,3H997a3,3,0,0,1-3-3v-208a3,3,0,0,1,3-3h208a3,3,0,0,1,3,3Z"/><path fill="#c4cee5" d="M1010.78,860.07h-5.16a2.69,2.69,0,0,1-2.69-2.69v-15.8h18.49l-8.22,17A2.7,2.7,0,0,1,1010.78,860.07Z"/><path fill="#a7b8de" d="M1041.11,860.07h-5.17a2.68,2.68,0,0,1-2.68-2.69v-15.8h18.49l-8.22,17A2.7,2.7,0,0,1,1041.11,860.07Z"/><path fill="#c4cee5" d="M1196.13,860.07h5.16a2.68,2.68,0,0,0,2.69-2.69v-15.8h-18.49l8.22,17A2.7,2.7,0,0,0,1196.13,860.07Z"/><path fill="#a7b8de" d="M1226.65,860.07h5.16a2.68,2.68,0,0,0,2.69-2.69v-15.8H1216l8.22,17A2.7,2.7,0,0,0,1226.65,860.07Z"/><rect width="84.56" height="169.2" x="1009.73" y="650" fill="#c4cee5" rx="4"/><rect width="84.56" height="169.2" x="1107.63" y="650" fill="#c4cee5" rx="4"/><polygon fill="#f2f6fb" points="1110.07 627.61 1053.66 841.58 1008.98 841.58 1065.4 627.61 1110.07 627.61" opacity=".42"/><path fill="#f2f6fb" d="M1206.1,627.84l-56.36,213.74h-73l56.41-214h71.79A3,3,0,0,1,1206.1,627.84Z" opacity=".42"/><g><path fill="#a8b9df" d="M192,635.39c-7.16.18-12.09-7.81-13.23-9.65a21.08,21.08,0,0,1-3.22-9c-.43-4,.81-5,0-8.23-.92-3.63-3-4.4-5.37-8.22-2.46-4-3-7.66-3.58-11.09a32.76,32.76,0,0,1,2.15-18.61c10.38-22.53,16.46-35,16.46-35s18.7,17.66,22.64,33.64c1.68,6.83,3.16,7.5,3,15.13-.07,3.3-1.59,5-2.38,9.18-.33,1.72-.19,2.54.36,8.58a43.86,43.86,0,0,1,.71,10.38c-.35,8.68-5.75,14.93-6.79,16.1C200.09,631.6,196.81,635.28,192,635.39Z"/><polygon fill="#899fca" points="188.54 559.73 204.05 767.38 199.06 767.69 188.54 559.73"/><path fill="#c4cfe6" d="M224.82,643.91c-6.55-1.22-9.51-9.45-10.19-11.35a19.55,19.55,0,0,1-1.2-8.76c.39-3.77,1.7-4.41,1.59-7.49-.13-3.49-1.88-4.59-3.3-8.53s-1.29-7.56-1.12-10.78a30.43,30.43,0,0,1,5.55-16.53c13.79-18.51,21.74-28.74,21.74-28.74s13.62,19.69,14.12,35c.22,6.54,1.44,7.43-.19,14.35-.7,3-2.41,4.25-3.94,7.9-.63,1.5-.66,2.28-1.33,7.89a40.47,40.47,0,0,1-1.35,9.58c-2,7.83-8.12,12.48-9.3,13.34C232.88,642,229.18,644.72,224.82,643.91Z"/><polygon fill="#a4b5dd" points="236.23 574.35 207.39 775.81 201.46 774.87 236.23 574.35"/><path fill="#a8b9df" d="M193.06,705c-5.05.12-8.53-5.51-9.33-6.81a14.89,14.89,0,0,1-2.27-6.3c-.3-2.85.57-3.53,0-5.8-.64-2.56-2.1-3.1-3.78-5.79a19.38,19.38,0,0,1-2.52-7.82,23,23,0,0,1,1.52-13.1c7.3-15.88,11.59-24.7,11.59-24.7s13.18,12.44,15.95,23.7c1.19,4.81,2.23,5.28,2.11,10.66-.05,2.33-1.12,3.53-1.68,6.47-.23,1.21-.13,1.79.25,6.05a30.83,30.83,0,0,1,.51,7.31,19.1,19.1,0,0,1-4.79,11.34C198.73,702.36,196.41,705,193.06,705Z"/><polygon fill="#899fca" points="190.59 651.73 198.45 769.19 193.46 769.42 190.59 651.73"/><path fill="#dde6f4" d="M209.13,669.1c-5.7.15-9.63-6.22-10.54-7.69a16.69,16.69,0,0,1-2.56-7.12c-.34-3.22.64-4,0-6.55-.73-2.89-2.38-3.5-4.27-6.55a21.82,21.82,0,0,1-2.85-8.83,26,26,0,0,1,1.71-14.81c8.26-17.94,13.1-27.91,13.1-27.91s14.89,14.06,18,26.78c1.34,5.44,2.51,6,2.38,12.05,0,2.63-1.27,4-1.9,7.31-.26,1.37-.15,2,.29,6.84a34.49,34.49,0,0,1,.57,8.26,21.64,21.64,0,0,1-5.41,12.81C215.54,666.08,212.92,669,209.13,669.1Z"/><path fill="#a4b5dd" d="M206.49,608.86,208.23,649l1.59,40.1c.54,13.37,1.25,26.73,1.44,40.1.08,6.69.16,13.38.11,20.07l-.07,10c-.09,3.35-.12,6.69-.25,10h-.3c-.33-3.34-.55-6.67-.82-10l-.65-10c-.43-6.68-.72-13.36-1-20-.58-13.37-.62-26.75-.84-40.12L206.73,649l-.54-40.13Z"/><path fill="#c4cfe6" d="M173.51,676.61c-5.44.83-10-4.78-11-6.08a16.11,16.11,0,0,1-3.33-6.51c-.71-3,.13-3.89-.79-6.27-1.05-2.68-2.71-3.07-4.89-5.75a21,21,0,0,1-3.8-8.11,25,25,0,0,1-.17-14.39c5.72-18.19,9.15-28.33,9.15-28.33s16,11.66,20.52,23.46c1.94,5,3.14,5.41,3.75,11.24.27,2.53-.73,4-.93,7.24-.08,1.34.11,1.95,1.11,6.51a33.21,33.21,0,0,1,1.55,7.84A20.82,20.82,0,0,1,181,670.39C179.28,672.94,177.13,676.06,173.51,676.61Z"/><polygon fill="#a4b5dd" points="163.51 619.27 196.98 764.76 191.11 765.98 163.51 619.27"/><path fill="#a8b9df" d="M236,673.56c-5.92-1.55-8.08-9.27-8.58-11a18.11,18.11,0,0,1-.52-8.1c.6-3.42,1.84-3.92,1.94-6.75.11-3.2-1.41-4.32-2.46-8a23.34,23.34,0,0,1-.31-9.94A27.89,27.89,0,0,1,232.26,615c13.84-16,21.79-24.87,21.79-24.87S265.22,609,264.67,623c-.24,6,.82,6.9-1.12,13.12-.84,2.69-2.49,3.73-4.13,7-.67,1.33-.75,2-1.74,7.12a37.2,37.2,0,0,1-1.86,8.68,23.08,23.08,0,0,1-9.38,11.6C243.52,672.35,240,674.59,236,673.56Z"/><polygon fill="#899fca" points="251.04 610.67 217.13 767.16 212.26 766.02 251.04 610.67"/><path fill="#dde6f4" d="M174,726.57c-3.63,1-7.18-2.4-8-3.2a11.13,11.13,0,0,1-2.8-4.14c-.75-2-.24-2.66-1.08-4.2-.94-1.73-2.1-1.85-3.81-3.49a14.39,14.39,0,0,1-3.27-5.19,17.2,17.2,0,0,1-1.33-9.77c2.35-12.85,3.82-20,3.82-20s11.85,6.57,15.94,14.21c1.75,3.26,2.59,3.41,3.5,7.33.39,1.69-.16,2.76,0,5,.06.92.24,1.32,1.3,4.33a22.74,22.74,0,0,1,1.72,5.2,14.26,14.26,0,0,1-1.37,9.1C177.62,723.59,176.43,725.89,174,726.57Z"/><path fill="#a4b5dd" d="M162.51,688.4l7,20.85,6.84,20.9c2.26,7,4.77,13.87,6.7,20.94s3.77,14.18,5.12,21.43l-.29.09c-2.92-6.77-5.37-13.69-7.7-20.64s-4.11-14.07-6.12-21.12l-6-21.16-5.84-21.21Z"/><path fill="#dde6f4" d="M239.42,709.18c-5.4-2-6.72-9.42-7-11.14a16.74,16.74,0,0,1,.24-7.63c.88-3.16,2.09-3.51,2.44-6.15.4-3-.93-4.18-1.57-7.74a22,22,0,0,1,.62-9.35,26.15,26.15,0,0,1,7.12-13.26c14.43-13.77,22.69-21.32,22.69-21.32s8.74,18.74,6.94,31.85c-.77,5.6.14,6.54-2.25,12.19-1,2.45-2.67,3.27-4.5,6.16-.75,1.19-.89,1.84-2.28,6.52a34.48,34.48,0,0,1-2.54,8,21.81,21.81,0,0,1-9.85,10C246.56,708.74,243,710.51,239.42,709.18Z"/><path fill="#a4b5dd" d="M259.38,651.66,249,683.59l-10.52,31.89c-3.53,10.62-6.81,21.33-10.66,31.84s-7.79,21-12.22,31.3l-.29-.1c2.87-10.85,6.21-21.53,9.67-32.18s7.46-21.1,11.23-31.64l11.37-31.6,11.51-31.54Z"/><path fill="#c4cfe6" d="M237.93,744.7c-3.17-2.36-2.58-7.5-2.44-8.69a11.53,11.53,0,0,1,1.65-5c1.2-1.9,2.06-1.9,2.8-3.56.85-1.89.21-2.93.48-5.4a15.11,15.11,0,0,1,2.24-6,18,18,0,0,1,7.26-7.32c12.18-6.23,19.08-9.58,19.08-9.58s2.08,14-1.66,22.29c-1.6,3.53-1.19,4.32-3.86,7.57-1.16,1.41-2.4,1.63-4.16,3.16-.73.64-.95,1-2.77,3.84a23.63,23.63,0,0,1-3.23,4.74,14.92,14.92,0,0,1-8.43,4.66C242.7,745.8,240,746.27,237.93,744.7Z"/><path fill="#a4b5dd" d="M262.32,710.83,249.41,729.9l-13,19c-4.36,6.32-8.5,12.78-13.15,18.9s-9.35,12.17-14.49,17.93l-.24-.18c3.79-6.72,8-13.14,12.29-19.5s9.07-12.38,13.64-18.54L248.19,729l13.88-18.37Z"/><path fill="#c4cfe6" d="M271.78,809.69A62,62,0,0,1,246,860.07H173.3A62.86,62.86,0,0,1,155.39,840a62.24,62.24,0,0,1-3.5-53.16c.65-1.66,1.38-3.29,2.18-4.87A62.36,62.36,0,0,1,173,759.55h73.34c.82.6,1.62,1.22,2.41,1.86a62.21,62.21,0,0,1,16.51,20.52c.8,1.58,1.52,3.21,2.18,4.87A61.94,61.94,0,0,1,271.78,809.69Z"/><path fill="#a4b5dd" d="M267.42 786.8a12.32 12.32 0 01-9.12 4c-5.08 0-7.73-2.62-9.87-4.72-1.93-1.9-3.32-3.28-6.35-3.28s-4.43 1.38-6.36 3.28c-2.13 2.1-4.78 4.72-9.86 4.72s-7.73-2.62-9.87-4.72c-1.93-1.9-3.32-3.28-6.35-3.28s-4.42 1.38-6.35 3.28c-2.13 2.1-4.78 4.72-9.86 4.72s-7.73-2.62-9.86-4.72c-1.93-1.9-3.33-3.28-6.36-3.28s-4.42 1.38-6.35 3.28c-2.13 2.1-4.78 4.72-9.86 4.72a12.31 12.31 0 01-9.11-4l2.18-4.87.58.57c1.93 1.9 3.32 3.28 6.35 3.28s4.42-1.38 6.35-3.28c2.13-2.1 4.78-4.72 9.86-4.72s7.74 2.62 9.87 4.72c1.93 1.9 3.32 3.28 6.35 3.28s4.42-1.38 6.35-3.28c2.13-2.1 4.78-4.72 9.86-4.72s7.73 2.62 9.87 4.72c1.93 1.9 3.32 3.28 6.35 3.28s4.42-1.38 6.35-3.28c2.13-2.1 4.79-4.72 9.87-4.72s7.73 2.62 9.86 4.72c1.93 1.9 3.33 3.28 6.36 3.28s4.42-1.38 6.35-3.28l.59-.58C266 783.51 266.76 785.14 267.42 786.8zM268.41 829.92a61.73 61.73 0 01-4.5 10.05 11.56 11.56 0 01-5.61 1.34c-5.08 0-7.73-2.61-9.87-4.72-1.93-1.9-3.32-3.28-6.35-3.28s-4.43 1.38-6.36 3.28c-2.13 2.11-4.78 4.72-9.86 4.72s-7.73-2.61-9.87-4.72c-1.93-1.9-3.32-3.28-6.35-3.28s-4.42 1.38-6.35 3.28c-2.13 2.11-4.78 4.72-9.86 4.72s-7.73-2.61-9.86-4.72c-1.93-1.9-3.33-3.28-6.36-3.28s-4.42 1.38-6.35 3.28c-2.13 2.11-4.78 4.72-9.86 4.72a11.56 11.56 0 01-5.61-1.34l-4.49-10a19.84 19.84 0 013.75 3.1c1.93 1.91 3.32 3.28 6.35 3.28s4.42-1.37 6.35-3.28c2.13-2.1 4.78-4.72 9.86-4.72s7.74 2.62 9.87 4.72c1.93 1.91 3.32 3.28 6.35 3.28s4.42-1.37 6.35-3.28c2.13-2.1 4.78-4.72 9.86-4.72s7.73 2.62 9.87 4.72c1.93 1.91 3.32 3.28 6.35 3.28s4.42-1.37 6.35-3.28c2.13-2.1 4.79-4.72 9.87-4.72s7.73 2.62 9.86 4.72c1.93 1.91 3.33 3.28 6.36 3.28s4.42-1.37 6.35-3.28A20.34 20.34 0 01268.41 829.92z"/><path fill="#fff" d="M215.72 759.55L179.51 860.07H173.3a62.65 62.65 0 01-7.36-6.25l34-94.27zM248.73 761.41l-35.55 98.66h-25.5l36.21-100.52h22.43C247.14 760.15 247.94 760.77 248.73 761.41z" opacity=".44"/></g><g><polygon fill="#e7ebf6" points="521.41 193.01 521.41 324.85 310.22 324.85 310.23 193.01 521.41 193.01"/><rect width="91.23" height="15.15" x="327.4" y="271.65" fill="url(#a)" opacity=".47" transform="rotate(-90 373.015 279.225)"/><rect width="99.23" height="15.15" x="277.85" y="267.65" fill="url(#b)" opacity=".47" transform="rotate(-90 327.465 275.225)"/><rect width="79.28" height="15.15" x="310.28" y="277.62" fill="url(#c)" opacity=".47" transform="rotate(-90 349.92 285.2)"/><rect width="99.23" height="15.15" x="367.33" y="267.65" fill="url(#d)" opacity=".47" transform="rotate(-90 416.945 275.225)"/><rect width="108.28" height="15.15" x="339.7" y="263.12" fill="url(#e)" opacity=".47" transform="rotate(-90 393.84 270.7)"/><rect width="91.23" height="15.15" x="418.48" y="271.65" fill="url(#f)" opacity=".47" transform="rotate(-90 464.095 279.225)"/><rect width="78.28" height="15.15" x="401.86" y="278.12" fill="url(#g)" opacity=".47" transform="rotate(-90 441 285.7)"/><rect width="99.23" height="15.15" x="458.41" y="267.65" fill="url(#h)" opacity=".47" transform="rotate(-90 508.025 275.225)"/><rect width="108.28" height="15.15" x="430.78" y="263.12" fill="url(#i)" opacity=".47" transform="rotate(-90 484.92 270.7)"/><rect width="7.2" height="26.49" x="323.87" y="261.98" fill="#f4f7fc"/><rect width="7.2" height="26.49" x="346.32" y="271.95" fill="#f4f7fc"/><rect width="7.2" height="26.49" x="390.24" y="257.45" fill="#f4f7fc"/><rect width="7.2" height="26.49" x="437.4" y="271.95" fill="#f4f7fc"/><rect width="7.2" height="26.49" x="481.32" y="256.84" fill="#f4f7fc"/><rect width="7.2" height="26.49" x="369.42" y="265.98" fill="#f4f7fc"/><rect width="7.2" height="26.49" x="413.34" y="261.98" fill="#f4f7fc"/><rect width="7.2" height="26.49" x="460.5" y="265.98" fill="#f4f7fc"/><rect width="7.2" height="26.49" x="504.42" y="261.98" fill="#f4f7fc"/><polygon fill="#fff" points="415.98 193.01 378.47 324.85 346.21 324.85 383.72 193.01 415.98 193.01" opacity=".43"/><polygon fill="#fff" points="478.84 193.01 441.33 324.85 393.77 324.85 431.28 193.01 478.84 193.01" opacity=".43"/><rect width="217.12" height="139.36" x="306.93" y="189.57" fill="none" stroke="url(#j)" stroke-miterlimit="10" stroke-width="7" opacity=".47"/></g><g data-name="Tabs"><path fill="url(#k)" d="M1214.34,514.44H990.22V368.08h224.12Zm-217.12-7,211-.59V375l-211,.07Z" opacity=".47"/><polygon fill="#e7ebf6" points="1208.19 375.02 1208.19 506.86 997 506.86 997.02 375.02 1208.19 375.02"/><rect width="91.23" height="15.15" x="1106.48" y="462.34" fill="url(#l)" opacity=".47" transform="rotate(-180 1152.09 469.91)"/><rect width="48.28" height="15.15" x="1149.43" y="485.44" fill="url(#m)" opacity=".47" transform="rotate(-180 1173.565 493.015)"/><rect width="91.23" height="15.15" x="1010.68" y="395.7" fill="url(#n)" opacity=".47"/><rect width="48.28" height="15.15" x="1010.68" y="418.8" fill="url(#o)" opacity=".47"/><polygon fill="#fff" points="1096.23 375.02 1058.72 506.86 1026.46 506.86 1063.97 375.02 1096.23 375.02" opacity=".43"/><polygon fill="#fff" points="1159.09 375.02 1121.58 506.86 1074.02 506.86 1111.53 375.02 1159.09 375.02" opacity=".43"/></g><g data-name="Tabs"><rect width="210.12" height="132.36" x="672.07" y="146.93" fill="url(#p)" opacity=".47"/><circle cx="704.21" cy="246.91" r="20.7" fill="#e7ebf6"/><circle cx="704.21" cy="246.91" r="20.7" fill="none" stroke="url(#q)" stroke-miterlimit="10" stroke-width="5" opacity=".47"/><circle cx="704.21" cy="246.91" r="12.34" fill="none" stroke="url(#r)" stroke-miterlimit="10" stroke-width="5" opacity=".47"/><polyline fill="none" stroke="url(#s)" stroke-miterlimit="10" stroke-width="4" points="735.19 246.91 748.82 246.91 757.53 234.57 795.65 234.57" opacity=".47"/><rect width="79.03" height="15.15" x="680.01" y="156.37" fill="url(#t)" opacity=".47"/><rect width="48.28" height="15.15" x="680.01" y="177.26" fill="url(#u)" opacity=".47"/><rect width="30.23" height="15.15" x="765.42" y="211.06" fill="url(#v)" opacity=".47"/><rect width="62.81" height="113.29" x="805.58" y="156.37" fill="#e7ebf6"/><rect width="30.23" height="15.15" x="814.65" y="166.38" fill="#a8b9df"/><rect width="62.81" height="113.29" x="805.58" y="156.37" fill="none" stroke="#a8b9df" stroke-miterlimit="10" stroke-width="4"/><rect width="8.17" height="27.97" x="817.32" y="226.97" fill="#a8b9df"/><rect width="8.17" height="32.96" x="828.04" y="222.18" fill="#a8b9df"/><rect width="8.17" height="22.41" x="838.37" y="232.73" fill="#a8b9df"/><rect width="8.17" height="28.17" x="848.49" y="226.97" fill="#a8b9df"/><line x1="814.65" x2="856.66" y1="196.28" y2="196.28" fill="none" stroke="#a8b9df" stroke-miterlimit="10" stroke-width="4"/><line x1="814.65" x2="856.66" y1="204.99" y2="204.99" fill="none" stroke="#a8b9df" stroke-miterlimit="10" stroke-width="4"/><polygon fill="#fff" points="768.37 146.93 730.71 279.29 698.45 279.29 736.11 146.93 768.37 146.93" opacity=".43"/><polygon fill="#fff" points="831.23 146.93 793.57 279.29 746.01 279.29 783.67 146.93 831.23 146.93" opacity=".43"/><path fill="url(#w)" d="M889.19,286.29H665.07V139.93H889.19Zm-217.12-7H882.19V146.93H672.07Z" opacity=".47"/></g><g><rect width="175.57" height="138.94" x="582.61" y="720.78" fill="#c4cee5"/><rect width="175.58" height="7.05" x="582.6" y="720.79" fill="#7f9acf"/><rect width="185.95" height="23.21" x="582.6" y="699.16" fill="#a7b8de" transform="rotate(180 675.58 710.77)"/><rect width="178.66" height="138.94" x="523.3" y="720.78" fill="#e6eaf5"/><rect width="178.66" height="17.15" x="523.3" y="710.68" fill="#a7b8de" transform="rotate(180 612.63 719.26)"/><rect width="196.06" height="23.21" x="514.61" y="699.16" fill="#cfd6ec" transform="rotate(180 612.64 710.77)"/><path fill="#cfd6ec" d="M523.3,768h24.09a2,2,0,0,0,2-2V746.56a2,2,0,0,0-2-2H523.3Z"/><rect width="31.77" height="23.44" x="575.96" y="785.6" fill="#cfd6ec" rx="2" transform="rotate(-90 591.845 797.325)"/><path fill="#a7b8de" d="M716,837.44v22.28H692.51V837.44a2,2,0,0,1,2-2H714A2,2,0,0,1,716,837.44Z"/><path fill="#cfd6ec" d="M694.51,835.44a2,2,0,0,0-2,2v22.28H702V835.44Z"/><path fill="#a7b8de" d="M758.18,744.56V768H743a2,2,0,0,1-2-2V746.56a2,2,0,0,1,2-2Z"/><path fill="#cfd6ec" d="M591.84,845.76v14H560.07v-14a2,2,0,0,1,2-2h27.77A2,2,0,0,1,591.84,845.76Z"/><rect width="31.77" height="23.44" x="645.29" y="742.03" fill="#cfd6ec" rx="2" transform="rotate(-90 661.175 753.755)"/></g><g data-name="Box"><rect width="175.57" height="138.94" x="582.61" y="560.22" fill="#c4cee5"/><rect width="175.58" height="7.05" x="582.6" y="560.23" fill="#7f9acf"/><rect width="185.95" height="23.21" x="582.6" y="538.6" fill="#a7b8de" transform="rotate(180 675.58 550.21)"/><rect width="178.66" height="138.94" x="523.3" y="560.22" fill="#e6eaf5"/><rect width="178.66" height="17.15" x="523.3" y="550.12" fill="#a7b8de" transform="rotate(180 612.63 558.7)"/><rect width="196.06" height="23.21" x="514.61" y="538.6" fill="#cfd6ec" transform="rotate(180 612.64 550.21)"/><path fill="#cfd6ec" d="M523.3,607.44h24.09a2,2,0,0,0,2-2V586a2,2,0,0,0-2-2H523.3Z"/><rect width="31.77" height="23.44" x="575.96" y="625.04" fill="#cfd6ec" rx="2" transform="rotate(-90 591.845 636.765)"/><path fill="#a7b8de" d="M716,676.88v22.28H692.51V676.88a2,2,0,0,1,2-2H714A2,2,0,0,1,716,676.88Z"/><path fill="#cfd6ec" d="M694.51,674.88a2,2,0,0,0-2,2v22.28H702V674.88Z"/><path fill="#a7b8de" d="M758.18,584v23.44H743a2,2,0,0,1-2-2V586a2,2,0,0,1,2-2Z"/><path fill="#cfd6ec" d="M591.84,685.2v14H560.07v-14a2,2,0,0,1,2-2h27.77A2,2,0,0,1,591.84,685.2Z"/><rect width="31.77" height="23.44" x="645.29" y="581.47" fill="#cfd6ec" rx="2" transform="rotate(-90 661.175 593.195)"/></g><g data-name="Robot\Leg\Front"><circle cx="392.28" cy="829.47" r="8.97" fill="#30302f"/><path fill="none" stroke="#30302f" stroke-miterlimit="10" stroke-width="3" d="M400.7,804.46h-9.46c-1.76,0-3.16,1-3.08,2.28l2.61,38.44c.08,1.16,1.44,2.07,3.08,2.07h5.65"/><polygon fill="#f6be1d" points="396.81 827.68 426.89 830.82 417.46 706.55 423.22 576.7 382.39 534.71 406.73 704.17 396.81 827.68"/><path fill="#ee9e23" d="M396.81,827.68v32.39h71.52v-11a7.63,7.63,0,0,0-7.46-7.62c-10.42-.28-29.22-2.45-34.22-13.81Z"/><path fill="#4e4f50" d="M396.94,550.42h3.48a22.8,22.8,0,0,1,22.8,22.8v3.48a3,3,0,0,1-3,3H396.94a3,3,0,0,1-3-3V553.42a3,3,0,0,1,3-3Z" transform="rotate(-180 408.585 565.055)"/><path fill="#79797a" d="M418.77,562.82H420a3.26,3.26,0,0,0,3.27-3.27v7.84a3.26,3.26,0,0,1-3.27,3.27h-1.18a24.83,24.83,0,0,1-24.83-24.83v-1.18a3.23,3.23,0,0,1,.5-1.71A24.84,24.84,0,0,0,418.77,562.82Z"/><path fill="#4e4f50" d="M410,604.32c1.42,16.19,2.25,32.4,2.87,48.6.36,8.1.51,16.21.77,24.31l.43,24.31q.3,24.32-.12,48.64c-.26,16.21-.73,32.43-1.8,48.65-1.43-16.19-2.26-32.4-2.88-48.6s-1-32.41-1.2-48.62l-.1-24.32c.07-8.11,0-16.21.23-24.32C408.47,636.76,408.94,620.54,410,604.32Z"/><path fill="#30302f" d="M397,860.07a9,9,0,0,1,2.32-6.6,9.47,9.47,0,0,1,6.6-3.05,9.78,9.78,0,0,1,7,2.65,9.92,9.92,0,0,1,3.08,7h-2.33a10,10,0,0,1,2.85-7.23,10.24,10.24,0,0,1,14.57-.11,10.41,10.41,0,0,1,3.08,7.34h-3a10.28,10.28,0,0,1,17.65-7.23,10,10,0,0,1,2.86,7.23h-2.35a10,10,0,0,1,3.09-7,9.78,9.78,0,0,1,7-2.65,9.45,9.45,0,0,1,6.6,3.05,8.93,8.93,0,0,1,2.32,6.6,8.92,8.92,0,0,0-2.91-6,8.46,8.46,0,0,0-6-2.17,8.07,8.07,0,0,0-5.61,2.57,7.92,7.92,0,0,0-2.13,5.61h-2.35a7.86,7.86,0,0,0-2.37-5.38,7.53,7.53,0,0,0-12.79,5.38h-3A7.4,7.4,0,0,0,429,854.8a7.59,7.59,0,0,0-10.64-.11,7.85,7.85,0,0,0-2.38,5.38h-2.33a7.93,7.93,0,0,0-2.14-5.61,8.07,8.07,0,0,0-5.61-2.57,8.37,8.37,0,0,0-6,2.17A8.94,8.94,0,0,0,397,860.07Z"/><circle cx="410.6" cy="706.16" r="14.78" fill="#4e4f50"/><circle cx="410.6" cy="706.16" r="8.45" fill="#ee9e23"/><circle cx="368.84" cy="829.47" r="8.97" fill="#30302f"/><path fill="none" stroke="#30302f" stroke-miterlimit="10" stroke-width="3" d="M360.42,804.46h9.46c1.76,0,3.16,1,3.08,2.28l-2.61,38.44c-.08,1.16-1.44,2.07-3.08,2.07h-5.65"/><polygon fill="#f6be1d" points="364.31 827.68 334.23 830.82 343.65 706.55 337.9 576.7 378.73 534.71 354.39 704.17 364.31 827.68"/><path fill="#ee9e23" d="M364.31,827.68v32.39H292.79v-11a7.63,7.63,0,0,1,7.46-7.62c10.42-.28,29.22-2.45,34.22-13.81Z"/><path fill="#4e4f50" d="M340.9,550.42h23.28a3,3,0,0,1,3,3v3.48a22.8,22.8,0,0,1-22.8,22.8H340.9a3,3,0,0,1-3-3V553.42a3,3,0,0,1,3-3Z"/><path fill="#79797a" d="M342.35,562.82h-1.18a3.26,3.26,0,0,1-3.27-3.27v7.84a3.26,3.26,0,0,0,3.27,3.27h1.18a24.83,24.83,0,0,0,24.83-24.83v-1.18a3.23,3.23,0,0,0-.5-1.71A24.84,24.84,0,0,1,342.35,562.82Z"/><path fill="#4e4f50" d="M351.11,604.32c1.07,16.22,1.54,32.44,1.8,48.65.18,8.11.16,16.21.23,24.32l-.1,24.32q-.26,24.32-1.2,48.62c-.62,16.2-1.45,32.41-2.88,48.6-1.07-16.22-1.54-32.44-1.8-48.65s-.32-32.43-.12-48.64l.43-24.31c.26-8.1.41-16.21.77-24.31C348.86,636.72,349.69,620.51,351.11,604.32Z"/><path fill="#30302f" d="M364.13,860.07a8.94,8.94,0,0,0-2.91-6,8.37,8.37,0,0,0-6-2.17,8.07,8.07,0,0,0-5.61,2.57,7.93,7.93,0,0,0-2.14,5.61h-2.33a7.85,7.85,0,0,0-2.38-5.38,7.59,7.59,0,0,0-10.64.11,7.4,7.4,0,0,0-2.15,5.27h-3a7.49,7.49,0,0,0-2.15-5.27,7.59,7.59,0,0,0-10.64-.11,7.86,7.86,0,0,0-2.37,5.38h-2.35a7.92,7.92,0,0,0-2.13-5.61,8.07,8.07,0,0,0-5.61-2.57,8.46,8.46,0,0,0-6,2.17,8.92,8.92,0,0,0-2.91,6,8.93,8.93,0,0,1,2.32-6.6,9.45,9.45,0,0,1,6.6-3.05,9.78,9.78,0,0,1,7,2.65,10,10,0,0,1,3.09,7h-2.35a10,10,0,0,1,2.86-7.23A10.31,10.31,0,0,1,330,860.07h-3a10.41,10.41,0,0,1,3.08-7.34,10.24,10.24,0,0,1,14.57.11,10,10,0,0,1,2.85,7.23h-2.33a9.92,9.92,0,0,1,3.08-7,9.78,9.78,0,0,1,7-2.65,9.47,9.47,0,0,1,6.6,3.05A9,9,0,0,1,364.13,860.07Z"/><circle cx="350.52" cy="706.16" r="14.78" fill="#4e4f50"/><circle cx="350.52" cy="706.16" r="8.45" fill="#ee9e23"/><path fill="#30302f" d="M337.46,555.4a192.55,192.55,0,0,0,86,.75,58.62,58.62,0,0,1,1.75-17.94,59.54,59.54,0,0,1,12-23.23,2.17,2.17,0,0,0-1.68-3.56H325.22a2.18,2.18,0,0,0-1.79,3.42A80.51,80.51,0,0,1,334.71,539,79.66,79.66,0,0,1,337.46,555.4Z"/><path fill="#f6be1d" d="M337.46,555.4a192.55,192.55,0,0,0,86,.75,58.62,58.62,0,0,1,1.75-17.94,59.54,59.54,0,0,1,12-23.23,2.17,2.17,0,0,0-1.68-3.56H325.22a2.18,2.18,0,0,0-1.79,3.42A80.51,80.51,0,0,1,334.71,539,79.66,79.66,0,0,1,337.46,555.4Z"/><path fill="#ee9e23" d="M334.71,539c-.17-.64-.37-1.24-.56-1.86,7.65,4,16.27,4.3,34.2,3.45,16.36-.77,29.62-16.08,36.53-29.13h30.33q-.09,3.18-.24,6.34a58.51,58.51,0,0,0-11.55,38.39,192.55,192.55,0,0,1-86-.75A79.66,79.66,0,0,0,334.71,539Z"/><path fill="#545554" d="M363.56,537.19a29.26,29.26,0,0,1,34.51-1l2.36,1.62a25.08,25.08,0,0,0,24.26,2.41c-.19.85-.35,1.69-.5,2.52a27.19,27.19,0,0,1-25-3.14L396.84,538a27.07,27.07,0,0,0-31.95.9,27.36,27.36,0,0,1-29.53,2.53c-.2-.82-.41-1.65-.65-2.49,0-.17-.1-.32-.14-.48a25.21,25.21,0,0,0,29-1.29Z"/><path fill="#484748" d="M388.56 532a29.48 29.48 0 019.51 4.26l2.36 1.62a25.08 25.08 0 0024.26 2.41c-.19.85-.35 1.69-.5 2.52h0a27.19 27.19 0 01-25-3.14L396.84 538a27.16 27.16 0 00-10.52-4.32C387.08 533.14 387.83 532.56 388.56 532zM348.14 542.45a25.41 25.41 0 008.55-1.51c1.67 0 3.45-.06 5.35-.12a27.27 27.27 0 01-26.68.63h0c-.2-.82-.41-1.65-.65-2.49 0-.17-.1-.32-.14-.48A25.43 25.43 0 00348.14 542.45z"/><path fill="#f8e782" d="M402.33,513.6A176.7,176.7,0,0,1,378,518c-8.14,1-16.3,1.52-24.45,1.82-2,.07-4.08.15-6.12.16s-4.08.08-6.12.06-4.09,0-6.13-.06l-3.06-.07-1.53-.06h-.19c-.07,0-.16,0-.07,0a3.22,3.22,0,0,0,.32-.07,2.27,2.27,0,0,0,.71-.36,1.94,1.94,0,0,0,.56-2.52,1.46,1.46,0,0,0-.17-.24s-.05-.06,0,0l0,.08.1.18.37.69.73,1.43a37,37,0,0,1,2.47,6.13,41.21,41.21,0,0,1,1.43,12.75c-2.34-3.57-4.26-7.26-6.49-10.37-1.1-1.57-2.29-3-3.56-4.49l-1-1.12-.48-.57-.13-.15-.06-.07-.13-.19a5.51,5.51,0,0,1-.53-.92,6.24,6.24,0,0,1-.33-4.32,6.31,6.31,0,0,1,2.59-3.56,6.72,6.72,0,0,1,2.13-.92,7.11,7.11,0,0,1,1.07-.16l.51,0,1.53-.13,3.05-.22c2-.16,4.07-.27,6.1-.37s4.08-.18,6.11-.25,4.08-.11,6.11-.14c8.15-.11,16.3,0,24.47.59A178.2,178.2,0,0,1,402.33,513.6Z"/><path fill="none" stroke="#30302f" stroke-miterlimit="10" stroke-width="4" d="M337.46,555.4a192.55,192.55,0,0,0,86,.75,58.62,58.62,0,0,1,1.75-17.94,59.54,59.54,0,0,1,12-23.23,2.17,2.17,0,0,0-1.68-3.56H325.22a2.18,2.18,0,0,0-1.79,3.42A80.51,80.51,0,0,1,334.71,539,79.66,79.66,0,0,1,337.46,555.4Z"/></g><g data-name="Robot\Head\Front"><rect width="19.3" height="15.95" x="364.96" y="373.74" fill="#30302f" transform="rotate(-180 374.61 381.715)"/><rect width="46.85" height="26.09" x="394.4" y="347.58" fill="#f2a01e" rx="5" transform="rotate(-180 417.825 360.63)"/><rect width="76.02" height="76.02" x="322.94" y="297.66" fill="#e89623" rx="7" transform="rotate(-180 360.955 335.665)"/><rect width="76.02" height="76.02" x="346.25" y="297.66" fill="#fcc01d" rx="7" transform="rotate(-180 384.26 335.665)"/><rect width="13.13" height="9.2" x="402.03" y="324.6" fill="#30302f" rx="1" transform="rotate(90 408.595 329.205)"/><rect width="13.13" height="9.2" x="371.1" y="324.6" fill="#30302f" rx="1" transform="rotate(90 377.66 329.2)"/><rect width="25.29" height="10.2" x="373.68" y="347.02" fill="#30302f" rx="1" transform="rotate(-180 386.32 352.115)"/><rect width="46.85" height="26.09" x="314.1" y="347.58" fill="#f2a01e" rx="5" transform="rotate(-180 337.525 360.63)"/><path fill="#e97b24" d="M319.1,347.58H337a5,5,0,0,0-5,5v16.1a5,5,0,0,0,5,5H319.1a5,5,0,0,1-5-5v-16.1A5,5,0,0,1,319.1,347.58Z"/><path fill="#f2a01e" d="M334.68,285.77v48.34a4,4,0,0,0,4,4h12.75a4,4,0,0,0,4-4V305.77a4,4,0,0,1,4-4h53.78a4,4,0,0,1,4,4v28.34a4,4,0,0,0,4,4H434a4,4,0,0,0,4-4V285.77a4,4,0,0,0-4-4H338.68A4,4,0,0,0,334.68,285.77Z"/><path fill="#e97b24" d="M359.6,286.87H430a3.35,3.35,0,0,1,3.36,3.36v47.88H421.21a4,4,0,0,1-4-4V305.77a4,4,0,0,0-4-4H359.43a4,4,0,0,0-4,3.94V291A4.16,4.16,0,0,1,359.6,286.87Z"/><rect width="19.3" height="15.95" x="374.61" y="373.74" fill="#474748" transform="rotate(-180 384.26 381.715)"/></g><g data-name="Robot\Body\Front"><ellipse cx="557.17" cy="458.27" fill="#30302f" rx="18.42" ry="7.3" transform="rotate(-45 557.169 458.263)"/><rect width="16.31" height="16.31" x="567.42" y="460.84" fill="#c53c56" rx="4" transform="rotate(67.6 575.578 468.984)"/><rect width="16.31" height="16.31" x="545.55" y="469.85" fill="#c53c56" rx="4" transform="rotate(67.6 553.708 478)"/><rect width="38.37" height="132.54" x="586.25" y="403.82" fill="none" stroke="#ee465e" stroke-linecap="round" stroke-linejoin="round" stroke-width="6" transform="rotate(67.6 605.434 470.089)"/><path fill="#ee465e" d="M634.07,369.93h49.86a0,0,0,0,1,0,0v87.85a18.89,18.89,0,0,1-18.89,18.89h-31a0,0,0,0,1,0,0V369.93A0,0,0,0,1,634.07,369.93Z" transform="rotate(67.6 659.003 423.293)"/><path fill="#ee465e" d="M552.63,413.18h19.14a0,0,0,0,1,0,0V513.67a6,6,0,0,1-6,6H552.63a0,0,0,0,1,0,0V413.18A0,0,0,0,1,552.63,413.18Z" transform="rotate(66.5 559.8 462.98)"/><path fill="#ec5f7a" d="M695.48,435.23l-3.63-8.81a3.28,3.28,0,0,0-4.28-1.78l-24,9.87a3.28,3.28,0,0,0-1.78,4.28l3.63,8.81Z"/><ellipse cx="708.23" cy="403.06" fill="#c53c56" rx="8.85" ry="24.95" transform="rotate(-25.05 708.309 403.096)"/><path fill="#ee465e" d="M706.76,416.07a4.5,4.5,0,0,0,2.68-.31c3.42-1.59,4-7.61,1.25-13.45s-7.7-9.26-11.12-7.66a4.33,4.33,0,0,0-1.89,1.76,64.11,64.11,0,0,0,3.86,10.45A65.14,65.14,0,0,0,706.76,416.07Z"/><path fill="#c53c56" d="M600.16,420.58l13.11,31.8a4.67,4.67,0,0,0,1,1.69l42.5-18.21,0-.08a36.92,36.92,0,0,1-6.29-8c-8.8-14.9-6.68-22-4.73-26Z"/><path fill="#c53c56" d="M614.81,453.81l-7.69-17.53-25.1,11L588,459.87a9.23,9.23,0,0,0,3.72,4.08Z"/><path fill="#ee465e" d="M646.51,434.13l-42.79,20.14a9.35,9.35,0,0,1-12.45-4.48l-8.58-18.22a9.37,9.37,0,0,1,4.49-12.46l40.35-19a9,9,0,0,1,12.28,4.12h0c-3.1,1.24-2.35,10.4,1.49,20a49.76,49.76,0,0,0,5.17,9.8"/><path fill="#ec5f7a" d="M592.9,427.42l24-9.87a3.28,3.28,0,0,0,1.78-4.28l-3.1-7.51-28.36,13.35a9.75,9.75,0,0,0-1,.56l2.46,6A3.26,3.26,0,0,0,592.9,427.42Z"/><circle cx="538.08" cy="487.13" r="13.22" fill="#4e4f50"/><path fill="#30302f" d="M577.81,486.33s11.79,0,12.55-6.3.34-20-.88-20.68-12.07-3.31-13.2,4.07-.32,9.86-.32,9.86S578,478.2,577.81,486.33Z"/><path fill="#96c952" d="M547.07,474.72c6.91-1.94,13.54-5.51,21.92-8.89,8.72-3.5,10.07,12.83,10.16,22a12.67,12.67,0,0,1-6.5,11.25c-7.87,4.3-18.51,5.91-23.75,2.91C540.19,497,540.09,476.68,547.07,474.72Z"/><path fill="#4e4f50" d="M436.9,404.44a28.18,28.18,0,0,1,2.5,8.37,26.12,26.12,0,0,1-6,21.06,14.93,14.93,0,1,0,3.52-29.43Z"/><circle cx="469.49" cy="471.19" r="11.92" fill="#4e4f50"/><path fill="#57b747" d="M423.87,392.17a6.53,6.53,0,0,1,.42,2.35L424,439.67c10.34-2.73,17.11-14.24,15.38-26.86C438,402.83,431.73,395,423.87,392.17Z"/><path fill="#96c952" d="M475.43 451.41l-14.83-25.3a5.73 5.73 0 00-7.85-2.05l-2.15 1.26a14.76 14.76 0 01-15.17 8.89l-.25.15a5.74 5.74 0 00-2.05 7.85L448 467.51a5.74 5.74 0 007.85 2.05l17.57-10.31A5.72 5.72 0 00475.43 451.41zM534.92 511.59a4.92 4.92 0 003.17-6.66A52.33 52.33 0 01536 470.71 4.9 4.9 0 00532 464.6l-48.92-8.27a4.91 4.91 0 00-5.53 3.43l-8.45 28.29a4.89 4.89 0 001.06 4.7 63.75 63.75 0 0064.73 18.84z"/><path fill="#57b747" d="M484.6,493.9l33.75,3.69a4.11,4.11,0,0,1,3.63,4.52l-1.29,11.76a63,63,0,0,1-41-12.56l.41-3.78A4.11,4.11,0,0,1,484.6,493.9Z"/><rect width="30.72" height="25.92" x="363.99" y="483.62" fill="#4e4f50" transform="rotate(-180 379.345 496.585)"/><path fill="#4e4f50" d="M321.88,404.31a28.22,28.22,0,0,0-2.58,8.33,26.06,26.06,0,0,0,5.81,21.13,14.67,14.67,0,0,1-5.58.24,14.93,14.93,0,0,1,2.35-29.7Z"/><circle cx="292.36" cy="468.42" r="11.92" fill="#4e4f50"/><path fill="#57b747" d="M335,392.17a6.76,6.76,0,0,0-.45,2.34l-.19,45.16c-10.31-2.84-17-14.42-15.1-27C320.77,402.68,327.15,394.88,335,392.17Z"/><circle cx="270.63" cy="534.02" r="11.92" fill="#4e4f50"/><path fill="#96c952" d="M282.87 450.88L298 425.73a5.73 5.73 0 017.87-2L308 425a14.9 14.9 0 0011.56 9 14.35 14.35 0 003.52.08l.25.16a5.72 5.72 0 012 7.86l-15.09 25.15a5.75 5.75 0 01-7.87 2l-17.47-10.49A5.72 5.72 0 01282.87 450.88zM248.62 530.93a4.91 4.91 0 006.53 3.42 52.42 52.42 0 0134.28-.83 4.9 4.9 0 006.25-3.7q5.06-24.29 10.12-48.58a4.92 4.92 0 00-3.23-5.65l-27.95-9.52a4.91 4.91 0 00-4.74.89 65 65 0 00-21.07 33.34A64.27 64.27 0 00248.62 530.93z"/><path fill="#57b747" d="M268.19,481.31l-5,33.59a4.1,4.1,0,0,1-4.65,3.46l-11.71-1.73A63,63,0,0,1,261,476.11l3.77.55A4.1,4.1,0,0,1,268.19,481.31Z"/><path fill="#96c952" d="M252,537.7h20.07a20.07,20.07,0,0,1,20.07,20.07v0a20.07,20.07,0,0,1-20.07,20.07h-8.69A11.38,11.38,0,0,1,252,566.47V537.7a0,0,0,0,1,0,0Z" transform="rotate(170.08 272.058 557.784)"/><path fill="#30302f" d="M290.63,547.34s34,11.94,4.67,26.75Z"/><rect width="90.68" height="106.75" x="334.01" y="386.24" fill="#96c952" rx="9" transform="rotate(-180 379.345 439.61)"/><polyline fill="none" stroke="#57b747" stroke-miterlimit="10" stroke-width="3" points="424.69 433.7 395.58 433.7 395.58 448.23 366.6 448.23 366.6 433.7 334.06 433.7"/></g><g data-name="Robot\Leg\Front"><circle cx="874.28" cy="829.47" r="8.97" fill="#30302f"/><path fill="none" stroke="#30302f" stroke-miterlimit="10" stroke-width="3" d="M865.86,804.46h9.46c1.76,0,3.16,1,3.08,2.28l-2.61,38.44c-.08,1.16-1.44,2.07-3.08,2.07h-5.65"/><polygon fill="#677eba" points="869.75 827.68 839.67 830.82 849.1 706.55 843.34 576.7 884.17 534.71 859.83 704.17 869.75 827.68"/><path fill="#526db3" d="M869.75,827.68v32.39H798.23v-11a7.63,7.63,0,0,1,7.46-7.62c10.42-.28,29.22-2.45,34.22-13.81Z"/><path fill="#4e4f50" d="M846.34,550.42h23.28a3,3,0,0,1,3,3v3.48a22.8,22.8,0,0,1-22.8,22.8h-3.48a3,3,0,0,1-3-3V553.42a3,3,0,0,1,3-3Z"/><path fill="#79797a" d="M847.79,562.82h-1.18a3.26,3.26,0,0,1-3.27-3.27v7.84a3.26,3.26,0,0,0,3.27,3.27h1.18a24.83,24.83,0,0,0,24.83-24.83v-1.18a3.23,3.23,0,0,0-.5-1.71A24.84,24.84,0,0,1,847.79,562.82Z"/><path fill="#4e4f50" d="M856.55,604.32c1.07,16.22,1.54,32.44,1.8,48.65.18,8.11.16,16.21.23,24.32l-.1,24.32q-.26,24.32-1.2,48.62c-.62,16.2-1.45,32.41-2.88,48.6-1.07-16.22-1.54-32.44-1.8-48.65s-.32-32.43-.12-48.64l.43-24.31c.26-8.1.41-16.21.77-24.31C854.3,636.72,855.13,620.51,856.55,604.32Z"/><path fill="#30302f" d="M869.57,860.07a8.94,8.94,0,0,0-2.91-6,8.37,8.37,0,0,0-6-2.17,8.07,8.07,0,0,0-5.61,2.57,7.93,7.93,0,0,0-2.14,5.61h-2.33a7.85,7.85,0,0,0-2.38-5.38,7.59,7.59,0,0,0-10.64.11,7.4,7.4,0,0,0-2.15,5.27h-3a7.49,7.49,0,0,0-2.15-5.27,7.59,7.59,0,0,0-10.64-.11,7.86,7.86,0,0,0-2.37,5.38h-2.35a7.92,7.92,0,0,0-2.13-5.61,8.07,8.07,0,0,0-5.61-2.57,8.46,8.46,0,0,0-6,2.17,8.92,8.92,0,0,0-2.91,6,8.93,8.93,0,0,1,2.32-6.6,9.45,9.45,0,0,1,6.6-3.05,9.78,9.78,0,0,1,7,2.65,10,10,0,0,1,3.09,7h-2.35a10,10,0,0,1,2.86-7.23,10.31,10.31,0,0,1,17.65,7.23h-3a10.44,10.44,0,0,1,3.07-7.34,10.25,10.25,0,0,1,14.58.11,10,10,0,0,1,2.85,7.23h-2.33a9.92,9.92,0,0,1,3.08-7,9.78,9.78,0,0,1,7-2.65,9.47,9.47,0,0,1,6.6,3.05A9,9,0,0,1,869.57,860.07Z"/><circle cx="855.96" cy="706.16" r="14.78" fill="#4e4f50"/><circle cx="855.96" cy="706.16" r="8.45" fill="#30302f"/><circle cx="897.72" cy="829.47" r="8.97" fill="#30302f"/><path fill="none" stroke="#30302f" stroke-miterlimit="10" stroke-width="3" d="M906.14,804.46h-9.46c-1.76,0-3.16,1-3.08,2.28l2.61,38.44c.08,1.16,1.44,2.07,3.08,2.07h5.65"/><polygon fill="#677eba" points="902.25 827.68 932.33 830.82 922.9 706.55 928.66 576.7 887.83 534.71 912.17 704.17 902.25 827.68"/><path fill="#526db3" d="M902.25,827.68v32.39h71.52v-11a7.63,7.63,0,0,0-7.46-7.62c-10.42-.28-29.22-2.45-34.22-13.81Z"/><path fill="#4e4f50" d="M902.38,550.42h3.48a22.8,22.8,0,0,1,22.8,22.8v3.48a3,3,0,0,1-3,3H902.38a3,3,0,0,1-3-3V553.42A3,3,0,0,1,902.38,550.42Z" transform="rotate(-180 914.025 565.055)"/><path fill="#79797a" d="M924.21,562.82h1.18a3.26,3.26,0,0,0,3.27-3.27v7.84a3.26,3.26,0,0,1-3.27,3.27h-1.18a24.83,24.83,0,0,1-24.83-24.83v-1.18a3.23,3.23,0,0,1,.5-1.71A24.84,24.84,0,0,0,924.21,562.82Z"/><path fill="#4e4f50" d="M915.45,604.32c1.42,16.19,2.25,32.4,2.87,48.6.36,8.1.51,16.21.77,24.31l.43,24.31q.3,24.32-.12,48.64c-.26,16.21-.73,32.43-1.8,48.65-1.43-16.19-2.26-32.4-2.88-48.6s-1-32.41-1.2-48.62l-.1-24.32c.07-8.11.05-16.21.23-24.32C913.91,636.76,914.38,620.54,915.45,604.32Z"/><path fill="#30302f" d="M902.43,860.07a9,9,0,0,1,2.32-6.6,9.47,9.47,0,0,1,6.6-3.05,9.78,9.78,0,0,1,7,2.65,9.92,9.92,0,0,1,3.08,7H919.1a10,10,0,0,1,2.85-7.23,10.25,10.25,0,0,1,14.58-.11,10.44,10.44,0,0,1,3.07,7.34h-3a10.28,10.28,0,0,1,17.65-7.23,10,10,0,0,1,2.86,7.23h-2.35a10,10,0,0,1,3.09-7,9.78,9.78,0,0,1,7-2.65,9.45,9.45,0,0,1,6.6,3.05,8.93,8.93,0,0,1,2.32,6.6,8.92,8.92,0,0,0-2.91-6,8.46,8.46,0,0,0-6-2.17,8.07,8.07,0,0,0-5.61,2.57,7.92,7.92,0,0,0-2.13,5.61h-2.35a7.86,7.86,0,0,0-2.37-5.38,7.53,7.53,0,0,0-12.79,5.38h-3a7.4,7.4,0,0,0-2.15-5.27,7.59,7.59,0,0,0-10.64-.11,7.85,7.85,0,0,0-2.38,5.38H919.1a7.93,7.93,0,0,0-2.14-5.61,8.07,8.07,0,0,0-5.61-2.57,8.37,8.37,0,0,0-6,2.17A8.94,8.94,0,0,0,902.43,860.07Z"/><circle cx="916.04" cy="706.16" r="14.78" fill="#4e4f50"/><circle cx="916.04" cy="706.16" r="8.45" fill="#30302f"/><path fill="#30302f" d="M929.11,555.4a192.6,192.6,0,0,1-86,.75,58.62,58.62,0,0,0-1.75-17.94,59.54,59.54,0,0,0-12-23.23,2.17,2.17,0,0,1,1.68-3.56H941.34a2.18,2.18,0,0,1,1.79,3.42A80.51,80.51,0,0,0,931.85,539,78.91,78.91,0,0,0,929.11,555.4Z"/><path fill="#677eba" d="M929.11,555.4a192.6,192.6,0,0,1-86,.75,58.62,58.62,0,0,0-1.75-17.94,59.54,59.54,0,0,0-12-23.23,2.17,2.17,0,0,1,1.68-3.56H941.34a2.18,2.18,0,0,1,1.79,3.42A80.51,80.51,0,0,0,931.85,539,78.91,78.91,0,0,0,929.11,555.4Z"/><path fill="#526db3" d="M931.85,539c.17-.64.37-1.24.56-1.86-7.65,4-16.27,4.3-34.2,3.46-16.36-.78-29.62-16.09-36.53-29.14H831.35q.09,3.18.24,6.34a58.51,58.51,0,0,1,11.55,38.39,192.55,192.55,0,0,0,86-.75A79.66,79.66,0,0,1,931.85,539Z"/><path fill="#545554" d="M903,537.19a29.26,29.26,0,0,0-34.51-1l-2.36,1.62a25.08,25.08,0,0,1-24.26,2.41c.19.85.35,1.69.5,2.52a27.19,27.19,0,0,0,25-3.14l2.36-1.61a27.07,27.07,0,0,1,31.95.9,27.36,27.36,0,0,0,29.53,2.53c.2-.82.41-1.65.65-2.49,0-.17.1-.32.14-.48a25.21,25.21,0,0,1-29-1.29Z"/><path fill="#484748" d="M878 532a29.48 29.48 0 00-9.51 4.26l-2.36 1.62a25.08 25.08 0 01-24.26 2.41c.19.85.35 1.69.5 2.52h0a27.19 27.19 0 0025-3.14l2.36-1.61a27.16 27.16 0 0110.52-4.32C879.48 533.14 878.73 532.56 878 532zM918.42 542.45a25.41 25.41 0 01-8.55-1.51c-1.67 0-3.45-.06-5.35-.12a27.27 27.27 0 0026.68.63h0c.2-.82.41-1.65.65-2.49 0-.17.1-.32.14-.48A25.43 25.43 0 01918.42 542.45z"/><path fill="#99aed9" d="M864.23,513.6a178.2,178.2,0,0,1,24.53-3.15c8.17-.55,16.32-.7,24.47-.59,2,0,4.07.06,6.11.14s4.07.13,6.11.25,4.07.21,6.1.37l3.06.22,1.52.13.51,0a7.11,7.11,0,0,1,1.07.16,6.72,6.72,0,0,1,2.13.92,6.31,6.31,0,0,1,2.59,3.56,6.24,6.24,0,0,1-.33,4.32,5.51,5.51,0,0,1-.53.92l-.13.19-.06.07-.13.15-.48.57-1,1.12c-1.27,1.49-2.46,2.92-3.56,4.49-2.23,3.11-4.15,6.8-6.49,10.37a41.21,41.21,0,0,1,1.43-12.75,37,37,0,0,1,2.47-6.13l.73-1.43.37-.69.1-.18,0-.08s0,0,0,0a1.46,1.46,0,0,0-.17.24,1.94,1.94,0,0,0,.56,2.52,2.27,2.27,0,0,0,.71.36,3.22,3.22,0,0,0,.32.07c.09,0,0,0-.07,0H936l-1.53.06-3.06.07c-2,0-4.08.06-6.13.06s-4.08,0-6.12-.06-4.08-.09-6.12-.16c-8.15-.3-16.31-.86-24.45-1.82A176.7,176.7,0,0,1,864.23,513.6Z"/><path fill="none" stroke="#30302f" stroke-miterlimit="10" stroke-width="4" d="M929.11,555.4a192.6,192.6,0,0,1-86,.75,58.62,58.62,0,0,0-1.75-17.94,59.54,59.54,0,0,0-12-23.23,2.17,2.17,0,0,1,1.68-3.56H941.34a2.18,2.18,0,0,1,1.79,3.42A80.51,80.51,0,0,0,931.85,539,78.91,78.91,0,0,0,929.11,555.4Z"/></g><g data-name="Robot\Head\Front"><rect width="19.3" height="15.95" x="883.33" y="374.36" fill="#30302f"/><rect width="46.85" height="26.09" x="826.34" y="348.2" fill="#406199" rx="5"/><rect width="76.02" height="76.02" x="868.62" y="298.27" fill="#526db3" rx="7"/><rect width="76.02" height="76.02" x="845.32" y="298.27" fill="#657ebd" rx="7"/><rect width="13.13" height="9.2" x="852.43" y="325.22" fill="#30302f" rx="1" transform="rotate(90 858.995 329.825)"/><rect width="13.13" height="9.2" x="883.37" y="325.22" fill="#30302f" rx="1" transform="rotate(90 889.93 329.82)"/><rect width="25.29" height="10.2" x="868.62" y="347.64" fill="#30302f" rx="1"/><rect width="46.85" height="26.09" x="906.63" y="348.2" fill="#406199" rx="5"/><path fill="#2b5599" d="M948.49,348.2H930.58a5,5,0,0,1,5,5v16.09a5,5,0,0,1-5,5h17.91a5,5,0,0,0,5-5V353.2A5,5,0,0,0,948.49,348.2Z"/><path fill="#406199" d="M932.91,286.38v48.34a4,4,0,0,1-4,4H916.16a4,4,0,0,1-4-4V306.38a4,4,0,0,0-4-4H854.38a4,4,0,0,0-4,4v28.34a4,4,0,0,1-4,4H833.63a4,4,0,0,1-4-4V286.38a4,4,0,0,1,4-4h95.28A4,4,0,0,1,932.91,286.38Z"/><path fill="#2b5599" d="M908,287.48h-70.4a3.36,3.36,0,0,0-3.36,3.37v47.87h12.15a4,4,0,0,0,4-4V306.38a4,4,0,0,1,4-4h53.78a4,4,0,0,1,4,3.95V291.65A4.17,4.17,0,0,0,908,287.48Z"/><rect width="19.3" height="15.95" x="873.68" y="374.36" fill="#474748"/></g><g data-name="Robot\Body\Front"><rect width="30.72" height="25.92" x="872.41" y="485.19" fill="#4e4f50"/><ellipse cx="793.29" cy="375.37" fill="#30302f" rx="6.58" ry="16.61" transform="rotate(-11.7 793.297 375.381)"/><rect width="37.06" height="9.84" x="808.26" y="459.6" fill="#526db3" transform="rotate(-24.01 826.95 464.571)"/><path fill="#4e4f50" d="M844.22,440.34a21.2,21.2,0,0,1-9.21-9.2,17.19,17.19,0,0,0-7.62,18.27c1.77,8.56,9.28,14.36,17.35,13.84L844,428.92h0Z"/><path fill="#526db3" d="M844.22,440.34l-.89-39.58a27.1,27.1,0,0,1,.08-4.55A26.08,26.08,0,0,0,832.17,415C830.75,426.06,835.91,436.25,844.22,440.34Z"/><circle cx="781.95" cy="418.92" r="11.92" fill="#4e4f50"/><rect width="16.31" height="16.31" x="780.32" y="364.33" fill="#c53c56" rx="4" transform="rotate(-36.2 788.454 372.487)"/><rect width="16.31" height="16.31" x="794.29" y="383.42" fill="#c53c56" rx="4" transform="rotate(-36.2 802.414 391.577)"/><rect width="38.37" height="132.54" x="763.23" y="276.96" fill="none" stroke="#ee465e" stroke-linecap="round" stroke-linejoin="round" stroke-width="6" transform="rotate(-36.2 782.39 343.228)"/><path fill="#ee465e" d="M699.26,249h49.86a0,0,0,0,1,0,0v87.85a18.89,18.89,0,0,1-18.89,18.89h-31a0,0,0,0,1,0,0V249A0,0,0,0,1,699.26,249Z" transform="rotate(-36.2 724.177 302.359)"/><path fill="#ee465e" d="M779.6,332.85h19.14a0,0,0,0,1,0,0V433.34a6,6,0,0,1-6,6H779.6a0,0,0,0,1,0,0V332.85A0,0,0,0,1,779.6,332.85Z" transform="rotate(-37.47 789.278 386.113)"/><path fill="#ec5f7a" d="M727.08,264.1l-7.69,5.63a3.28,3.28,0,0,0-.7,4.58l15.3,20.9a3.26,3.26,0,0,0,4.57.71l7.69-5.63Z"/><ellipse cx="692.81" cy="259.39" fill="#c53c56" rx="24.95" ry="8.85" transform="rotate(-38.85 692.844 259.394)"/><path fill="#ee465e" d="M705.79,257.72a4.5,4.5,0,0,0-.94-2.54c-2.37-2.93-8.34-2-13.36,2s-7.16,9.69-4.79,12.63a4.47,4.47,0,0,0,2.17,1.42,67.84,67.84,0,0,0,16.92-13.51Z"/><path fill="#c53c56" d="M735.59,360.16l27.76-20.32a4.58,4.58,0,0,0,1.41-1.32l-27.82-36.93-.07.06a36.92,36.92,0,0,1-6.22,8c-12.38,12.11-19.74,11.73-24.12,10.79Z"/><path fill="#c53c56" d="M764.37,338l-15.19,11.65,16.67,21.75,10.81-8.76a9.28,9.28,0,0,0,3.08-4.59Z"/><path fill="#ee465e" d="M737.69,311.91l29.77,36.76a9.36,9.36,0,0,1-1.38,13.16L750.43,374.5a9.36,9.36,0,0,1-13.17-1.38l-28.07-34.66a9,9,0,0,1,1.08-12.91h0c1.94,2.72,10.66-.2,19.06-6.22a48.93,48.93,0,0,0,8.29-7.36"/><path fill="#ec5f7a" d="M744,365.58l-15.3-20.91a3.28,3.28,0,0,0-4.58-.71l-6.56,4.8,19.73,24.36a10.72,10.72,0,0,0,.79.85l5.21-3.82A3.26,3.26,0,0,0,744,365.58Z"/><path fill="#657ebd" d="M761.28,428.71a4.91,4.91,0,0,1,4.35-5.95,52.32,52.32,0,0,0,31.13-14.38,4.9,4.9,0,0,1,7.24.56l30.51,39.13a4.91,4.91,0,0,1-.4,6.5l-20.88,20.87a4.89,4.89,0,0,1-4.64,1.3A64.94,64.94,0,0,1,775,456.11,64.16,64.16,0,0,1,761.28,428.71Z"/><path fill="#526db3" d="M800.73,464.6l-19.27-28a4.09,4.09,0,0,0-5.69-1L766,442.32a63.12,63.12,0,0,0,30.53,30.14l3.14-2.16A4.1,4.1,0,0,0,800.73,464.6Z"/><path fill="#30302f" d="M760.64,390.11s-6.57-8.36-2.57-12.4,13.92-11.41,15.12-11,9.09,6.68,4.51,11.62-6.79,5.74-6.79,5.74A31.24,31.24,0,0,0,760.64,390.11Z"/><path fill="#657ebd" d="M786.12,405.74c-2.3-6.05-3.27-12.77-5.32-20.66-2.14-8.19-14.7-.41-21.42,4.46a11.42,11.42,0,0,0-4.66,10.74c1.1,8,5.64,16.6,10.62,18.78C773.63,422.7,788.44,411.85,786.12,405.74Z"/><path fill="#4e4f50" d="M945.23,405.87a28.21,28.21,0,0,1,2.59,8.34A26.14,26.14,0,0,1,942,435.34a14.93,14.93,0,1,0,3.22-29.47Z"/><circle cx="974.75" cy="469.98" r="11.92" fill="#4e4f50"/><path fill="#526db3" d="M932.07,393.73a6.34,6.34,0,0,1,.45,2.35l.2,45.15c10.31-2.84,17-14.42,15.1-27C946.34,404.25,940,396.44,932.07,393.73Z"/><circle cx="996.49" cy="535.58" r="11.92" fill="#4e4f50"/><path fill="#657ebd" d="M984.24 452.44l-15.09-25.15a5.72 5.72 0 00-7.86-2l-2.14 1.29a14.94 14.94 0 01-11.56 9 14.36 14.36 0 01-3.52.08l-.26.16a5.73 5.73 0 00-2 7.86l15.09 25.15a5.72 5.72 0 007.86 2l17.48-10.49A5.73 5.73 0 00984.24 452.44zM1018.5 532.49a4.91 4.91 0 01-6.53 3.42 52.42 52.42 0 00-34.28-.83 4.9 4.9 0 01-6.25-3.7q-5.07-24.28-10.12-48.58a4.91 4.91 0 013.23-5.65l28-9.51a4.86 4.86 0 014.73.88 63.75 63.75 0 0121.27 64z"/><path fill="#526db3" d="M998.93,482.88l5,33.59a4.1,4.1,0,0,0,4.65,3.45l11.7-1.73a62.83,62.83,0,0,0-1.94-16.33,63.54,63.54,0,0,0-12.15-24.19l-3.77.56A4.09,4.09,0,0,0,998.93,482.88Z"/><path fill="#657ebd" d="M986.35,539.26H995a20.07,20.07,0,0,1,20.07,20.07v0A20.07,20.07,0,0,1,995,579.41H975a0,0,0,0,1,0,0V550.64A11.38,11.38,0,0,1,986.35,539.26Z" transform="rotate(9.92 994.757 559.157)"/><path fill="#30302f" d="M976.49,548.9s-34,11.94-4.68,26.75Z"/><rect width="90.68" height="106.75" x="842.43" y="387.8" fill="#657ebd" rx="9"/><path fill="#526db3" d="M871.54,451.3h29a1.5,1.5,0,0,0,1.5-1.5v-13h31a1.5,1.5,0,0,0,0-3H900.52a1.5,1.5,0,0,0-1.5,1.5v13H873v-13a1.5,1.5,0,0,0-1.5-1.5H842.43a1.5,1.5,0,0,0,0,3H870v13A1.5,1.5,0,0,0,871.54,451.3Z"/></g></svg>