<?xml version="1.0" encoding="utf-8"?>
<!-- Generator: Adobe Illustrator 17.0.0, SVG Export Plug-In . SVG Version: 6.00 Build 0)  -->
<!DOCTYPE svg PUBLIC "-//W3C//DTD SVG 1.1//EN" "http://www.w3.org/Graphics/SVG/1.1/DTD/svg11.dtd">
<svg version="1.1" id="Capa_1" xmlns="http://www.w3.org/2000/svg" xmlns:xlink="http://www.w3.org/1999/xlink" x="0px" y="0px"
	 width="2000px" height="2400px" viewBox="0 0 2000 2400" enable-background="new 0 0 2000 2400" xml:space="preserve">
<rect y="1921.173" fill="#FF435A" width="2000" height="478.827"/>
<linearGradient id="SVGID_1_" gradientUnits="userSpaceOnUse" x1="1549.439" y1="1982.7861" x2="2000" y2="1982.7861">
	<stop  offset="0" style="stop-color:#1D1D1B"/>
	<stop  offset="0.3617" style="stop-color:#7A2D35;stop-opacity:0.6383"/>
	<stop  offset="0.6696" style="stop-color:#C13949;stop-opacity:0.3304"/>
	<stop  offset="0.8893" style="stop-color:#EE4055;stop-opacity:0.1107"/>
	<stop  offset="1" style="stop-color:#FF435A;stop-opacity:0"/>
</linearGradient>
<polyline opacity="0.2" fill="url(#SVGID_1_)" points="1563.615,1994.074 2000,1993.246 2000,1993.246 2000,1972.678 
	1549.439,1971.498 "/>
<linearGradient id="SVGID_2_" gradientUnits="userSpaceOnUse" x1="1667.9606" y1="1982.7861" x2="2118.5215" y2="1982.7861">
	<stop  offset="0" style="stop-color:#1D1D1B"/>
	<stop  offset="0.3617" style="stop-color:#7A2D35;stop-opacity:0.6383"/>
	<stop  offset="0.6696" style="stop-color:#C13949;stop-opacity:0.3304"/>
	<stop  offset="0.8893" style="stop-color:#EE4055;stop-opacity:0.1107"/>
	<stop  offset="1" style="stop-color:#FF435A;stop-opacity:0"/>
</linearGradient>
<polyline opacity="0.1" fill="url(#SVGID_2_)" points="1682.137,1994.074 2118.521,1993.246 2118.521,1993.246 2118.521,1972.678 
	1667.961,1971.498 "/>
<rect y="0" fill="#FFEE99" width="2000" height="1921.173"/>
<circle fill="#FF435A" cx="306.425" cy="288.708" r="209.942"/>
<g>
	<g>
		<path fill="#1D595E" d="M1500.409,718.918L1665.2,1985.479c0.618,4.749,4.964,8.594,9.713,8.594c2.378,0,4.401-0.96,5.753-2.514
			c1.351-1.561,2.031-3.71,1.723-6.081L1517.598,718.918c-0.618-4.749-4.964-8.594-9.713-8.594c-2.378,0-4.401,0.96-5.753,2.514
			C1500.781,714.398,1500.101,716.547,1500.409,718.918z"/>
		<path fill="#1D595E" d="M1389.111,718.918l164.791,1266.562c0.618,4.749,4.964,8.594,9.713,8.594c2.378,0,4.401-0.96,5.753-2.514
			c1.351-1.561,2.031-3.71,1.723-6.081L1406.3,718.918c-0.618-4.749-4.964-8.594-9.713-8.594c-2.378,0-4.402,0.96-5.753,2.514
			C1389.483,714.398,1388.803,716.547,1389.111,718.918z"/>
	</g>
	<g>
		<polygon fill="#1D595E" points="1541.677,1891.514 1543.913,1908.702 1672.4,1908.702 1670.163,1891.514 		"/>
		<polygon fill="#1D595E" points="1532.171,1818.454 1534.408,1835.65 1662.895,1835.65 1660.658,1818.454 		"/>
		<polygon fill="#1D595E" points="1522.666,1745.401 1524.903,1762.59 1653.389,1762.59 1651.153,1745.401 		"/>
		<polygon fill="#1D595E" points="1513.161,1672.348 1515.398,1689.537 1643.885,1689.537 1641.648,1672.348 		"/>
		<polygon fill="#1D595E" points="1503.656,1599.296 1505.893,1616.484 1634.38,1616.484 1632.143,1599.296 		"/>
		<polygon fill="#1D595E" points="1494.151,1526.236 1496.388,1543.432 1624.875,1543.432 1622.637,1526.236 		"/>
		<polygon fill="#1D595E" points="1484.646,1453.183 1486.882,1470.372 1615.369,1470.372 1613.133,1453.183 		"/>
		<polygon fill="#1D595E" points="1475.141,1380.13 1477.378,1397.319 1605.864,1397.319 1603.628,1380.13 		"/>
		<polygon fill="#1D595E" points="1465.636,1307.078 1467.873,1324.267 1596.359,1324.267 1594.123,1307.078 		"/>
		<polygon fill="#1D595E" points="1456.13,1234.018 1458.368,1251.214 1586.855,1251.214 1584.617,1234.018 		"/>
		<polygon fill="#1D595E" points="1446.626,1160.965 1448.862,1178.154 1577.349,1178.154 1575.112,1160.965 		"/>
		<polygon fill="#1D595E" points="1437.121,1087.912 1439.357,1105.101 1567.844,1105.101 1565.608,1087.912 		"/>
		<polygon fill="#1D595E" points="1427.616,1014.86 1429.852,1032.049 1558.339,1032.049 1556.103,1014.86 		"/>
		<polygon fill="#1D595E" points="1418.111,941.807 1420.348,958.996 1548.834,958.996 1546.598,941.807 		"/>
		<polygon fill="#1D595E" points="1408.605,868.747 1410.843,885.943 1539.329,885.943 1537.092,868.747 		"/>
		<polygon fill="#1D595E" points="1399.101,795.695 1401.337,812.883 1529.824,812.883 1527.587,795.695 		"/>
	</g>
</g>
<linearGradient id="SVGID_3_" gradientUnits="userSpaceOnUse" x1="1335.9211" y1="2099.1465" x2="2000" y2="2099.1465">
	<stop  offset="0" style="stop-color:#1D1D1B"/>
	<stop  offset="0.3617" style="stop-color:#7A2D35;stop-opacity:0.6383"/>
	<stop  offset="0.6696" style="stop-color:#C13949;stop-opacity:0.3304"/>
	<stop  offset="0.8893" style="stop-color:#EE4055;stop-opacity:0.1107"/>
	<stop  offset="1" style="stop-color:#FF435A;stop-opacity:0"/>
</linearGradient>
<polyline opacity="0.5" fill="url(#SVGID_3_)" points="1335.921,2160.586 2000,2160.586 2000,2160.586 2000,2037.706 
	1472.58,2037.706 "/>
<path fill="#EDEDED" d="M1511.438,2018.638c0,45.527-36.907,82.434-82.434,82.434H687.011c-45.527,0-82.434-36.907-82.434-82.434
	V472.836c0-45.527,36.907-82.434,82.434-82.434h741.993c45.527,0,82.434,36.907,82.434,82.434V2018.638z"/>
<polyline fill="#EDEDED" points="629.829,414.736 562.78,481.288 592.419,501.097 650.354,477.923 654.041,426.308 "/>
<polyline fill="#EDEDED" points="1473.034,2004.779 1415.626,2079.042 1432.767,2130.981 1490.515,2073.511 "/>
<path fill="#FFFFFF" d="M1451.923,2078.153c0,45.527-36.907,82.434-82.434,82.434H627.496c-45.527,0-82.434-36.907-82.434-82.434
	V532.351c0-45.527,36.907-82.434,82.434-82.434h741.993c45.527,0,82.434,36.907,82.434,82.434V2078.153z"/>
<rect x="609.8" y="600.985" fill="#1D595E" width="777.385" height="1408.535"/>
<rect x="1128.057" y="980.306" fill="#1D595E" width="259.128" height="259.128"/>
<path fill="#1D595E" d="M1143.945,532.312c0,6.981-5.659,12.64-12.64,12.64H865.68c-6.981,0-12.64-5.659-12.64-12.64v-3.159
	c0-6.981,5.659-12.64,12.64-12.64h265.625c6.981,0,12.64,5.659,12.64,12.64V532.312z"/>
<rect x="868.928" y="1237.001" fill="#379393" width="259.128" height="259.128"/>
<circle fill="#1D595E" cx="651.848" cy="530.732" r="20.54"/>
<rect x="868.928" y="723.611" fill="#1D595E" width="259.128" height="259.128"/>
<rect x="1128.057" y="1493.696" fill="#379393" width="259.128" height="259.128"/>
<rect x="609.8" y="980.306" fill="#379393" width="259.128" height="259.128"/>
<circle fill="#1D595E" cx="998.492" cy="2082.386" r="44.68"/>
<path fill="#DADADA" d="M1462.573,804.067c0-6.981,5.659-12.64,12.64-12.64l0,0c6.981,0,12.64,5.659,12.64,12.64v170.637
	c0,6.981-5.659,12.64-12.64,12.64l0,0c-6.981,0-12.64-5.659-12.64-12.64V804.067z"/>
<path fill="#FFFFFF" d="M1472.58,804.067c0-6.981,5.659-12.64,12.64-12.64l0,0c6.981,0,12.64,5.659,12.64,12.64v170.637
	c0,6.981-5.659,12.64-12.64,12.64l0,0c-6.981,0-12.64-5.659-12.64-12.64V804.067z"/>
<path fill="#DADADA" d="M1462.573,1017.901c0-6.981,5.659-12.64,12.64-12.64l0,0c6.981,0,12.64,5.659,12.64,12.64v170.637
	c0,6.981-5.659,12.64-12.64,12.64l0,0c-6.981,0-12.64-5.659-12.64-12.64V1017.901z"/>
<path fill="#FFFFFF" d="M1472.58,1017.901c0-6.981,5.659-12.64,12.64-12.64l0,0c6.981,0,12.64,5.659,12.64,12.64v170.637
	c0,6.981-5.659,12.64-12.64,12.64l0,0c-6.981,0-12.64-5.659-12.64-12.64V1017.901z"/>
<path fill="#154344" d="M1042.348,769.337h-9.978h-4.781h-28.972h-57.331c-18.606,0-33.689,15.085-33.689,33.691v101.059
	c0,18.606,15.083,33.689,33.689,33.689h17.998l0,0h16.737h15.795h17.572l0,0h32.959c18.606,0,33.689-15.083,33.689-33.689V864.54
	v-35.5v-17.644v-8.367C1076.037,784.422,1060.954,769.337,1042.348,769.337z"/>
<g>
	<path fill="#FF435A" d="M1055.324,782.315v101.059c0,18.606-15.083,33.689-33.689,33.689H920.574
		c-18.606,0-33.689-15.083-33.689-33.689V782.315c0-18.606,15.083-33.691,33.689-33.691h101.061
		C1040.241,748.624,1055.324,763.709,1055.324,782.315z"/>
	<g>
		<circle fill="#FFEE99" cx="971.105" cy="832.844" r="21.754"/>
		<path fill="#FFFFFF" d="M963.398,786.837c0,6.659,2.993,12.619,7.707,16.609c4.713-3.99,7.707-9.95,7.707-16.609
			c0-6.659-2.993-12.619-7.707-16.609C966.391,774.219,963.398,780.178,963.398,786.837z"/>
		<path fill="#FFFFFF" d="M963.398,878.852c0,6.659,2.993,12.619,7.707,16.609c4.713-3.99,7.707-9.95,7.707-16.609
			s-2.993-12.619-7.707-16.609C966.391,866.233,963.398,872.192,963.398,878.852z"/>
		<path fill="#FFFFFF" d="M998.187,794.863c-4.709,4.709-6.806,11.039-6.295,17.194c6.154,0.511,12.485-1.586,17.194-6.295
			c4.709-4.709,6.806-11.039,6.295-17.194C1009.227,788.057,1002.896,790.154,998.187,794.863z"/>
		<path fill="#FFFFFF" d="M933.123,859.927c-4.709,4.709-6.806,11.039-6.295,17.194c6.154,0.511,12.485-1.586,17.194-6.295
			s6.806-11.039,6.295-17.194C944.163,853.121,937.832,855.218,933.123,859.927z"/>
		<path fill="#FFFFFF" d="M1017.112,825.138c-6.659,0-12.619,2.993-16.609,7.707c3.99,4.713,9.95,7.707,16.609,7.707
			c6.659,0,12.619-2.993,16.609-7.707C1029.731,828.131,1023.771,825.138,1017.112,825.138z"/>
		<path fill="#FFFFFF" d="M925.098,825.138c-6.659,0-12.619,2.993-16.609,7.707c3.99,4.713,9.95,7.707,16.609,7.707
			c6.659,0,12.619-2.993,16.609-7.707C937.716,828.131,931.757,825.138,925.098,825.138z"/>
		<path fill="#FFFFFF" d="M1009.086,859.927c-4.709-4.709-11.039-6.806-17.194-6.295c-0.511,6.154,1.586,12.485,6.295,17.194
			s11.039,6.806,17.194,6.295C1015.892,870.966,1013.795,864.636,1009.086,859.927z"/>
		<path fill="#FFFFFF" d="M944.022,794.863c-4.709-4.709-11.039-6.806-17.194-6.295c-0.511,6.154,1.586,12.485,6.295,17.194
			s11.039,6.806,17.194,6.295C950.828,805.902,948.731,799.572,944.022,794.863z"/>
	</g>
	<polyline opacity="0.4" fill="#FFFFFF" points="886.886,853.557 938.573,917.064 988.677,917.064 886.886,800.312 	"/>
	<polyline fill="#FF435A" points="955.31,917.064 898.785,847.407 971.105,917.064 	"/>
	<path opacity="0.4" fill="#FFFFFF" d="M1055.324,782.315v61.512l-77.419-95.203h43.73
		C1040.241,748.624,1055.324,763.709,1055.324,782.315z"/>
	<polygon fill="#FF435A" points="1055.324,790.682 1055.324,808.327 1006.877,748.624 1011.657,748.624 	"/>
</g>
<g>
	<path fill="#EDEDED" d="M1341.52,1572.731v101.059c0,18.606-15.083,33.689-33.689,33.689H1206.77
		c-18.606,0-33.689-15.083-33.689-33.689v-101.059c0-18.606,15.083-33.691,33.689-33.691h101.061
		C1326.437,1539.041,1341.52,1554.125,1341.52,1572.731z"/>
	<g>
		<path fill="#1D595E" d="M1219.517,1580.298c0,1.05-0.851,1.901-1.901,1.901h-6.552c-1.05,0-1.901-0.851-1.901-1.901v-9.505
			c0-1.05,0.851-1.901,1.901-1.901h6.552c1.05,0,1.901,0.851,1.901,1.901V1580.298z"/>
		<path fill="#FF435A" d="M1319.997,1665.953c0,2.321-1.881,4.202-4.202,4.202h-116.988c-2.321,0-4.202-1.881-4.202-4.202v-84.044
			c0-2.321,1.881-4.202,4.202-4.202h116.988c2.321,0,4.202,1.881,4.202,4.202V1665.953z"/>
		<circle fill="#FFFFFF" cx="1257.301" cy="1623.931" r="31.517"/>
		<circle fill="#1D595E" cx="1257.301" cy="1623.931" r="22.645"/>
		<circle fill="#FFFFFF" cx="1270.724" cy="1611.208" r="9.922"/>
	</g>
	<polyline opacity="0.6" fill="#FFFFFF" points="1173.082,1643.973 1224.769,1707.48 1274.872,1707.48 1173.082,1590.729 	"/>
	<polyline fill="#EDEDED" points="1241.506,1707.48 1184.981,1637.823 1257.301,1707.48 	"/>
	<path opacity="0.6" fill="#FFFFFF" d="M1341.52,1572.731v61.512l-77.419-95.203h43.73
		C1326.437,1539.041,1341.52,1554.125,1341.52,1572.731z"/>
	<polygon fill="#EDEDED" points="1341.52,1581.099 1341.52,1598.743 1293.073,1539.041 1297.853,1539.041 	"/>
</g>
<g>
	<path fill="#FFEE99" d="M1082.712,1316.036v101.059c0,18.606-15.083,33.689-33.689,33.689H947.962
		c-18.606,0-33.689-15.083-33.689-33.689v-101.059c0-18.606,15.083-33.691,33.689-33.691h101.061
		C1067.629,1282.346,1082.712,1297.43,1082.712,1316.036z"/>
	<g>
		<path fill="#1D595E" d="M1059.629,1331.093c0-4.99-4.045-9.035-9.035-9.035H946.391c-4.99,0-9.035,4.045-9.035,9.035
			l61.136,36.144L1059.629,1331.093z"/>
		<path fill="#1D595E" d="M998.492,1376.501l-61.136-45.408v72.287c0,4.99,4.045,9.035,9.035,9.035h104.203
			c4.99,0,9.035-4.045,9.035-9.035v-72.287L998.492,1376.501z"/>
	</g>
	<polyline opacity="0.6" fill="#FFFFFF" points="914.273,1387.278 965.96,1450.785 1016.064,1450.785 914.273,1334.034 	"/>
	<polyline fill="#FFEE99" points="982.698,1450.785 926.173,1381.128 998.492,1450.785 	"/>
	<path opacity="0.6" fill="#FFFFFF" d="M1082.712,1316.036v61.512l-77.419-95.203h43.73
		C1067.629,1282.346,1082.712,1297.43,1082.712,1316.036z"/>
	<polygon fill="#FFEE99" points="1082.712,1324.404 1082.712,1342.048 1034.264,1282.346 1039.045,1282.346 	"/>
</g>
<rect x="609.8" y="1750.391" fill="#379393" width="259.128" height="259.128"/>
<g>
	<path fill="#FF435A" d="M819.342,1828.557v95.939c0,17.663-14.319,31.982-31.982,31.982H691.42
		c-17.663,0-31.982-14.319-31.982-31.982v-95.939c0-17.663,14.319-31.984,31.982-31.984h95.941
		C805.024,1796.573,819.342,1810.893,819.342,1828.557z"/>
	<polygon fill="#FFEE99" points="710.8,1877.163 710.8,1835.701 746.706,1856.432 782.613,1877.163 746.706,1897.893 
		710.8,1918.624 	"/>
	<polyline opacity="0.4" fill="#FFFFFF" points="659.438,1896.189 708.506,1956.479 756.071,1956.479 659.438,1845.642 	"/>
	<polyline fill="#FF435A" points="724.396,1956.479 670.734,1890.351 739.39,1956.479 	"/>
	<path opacity="0.4" fill="#FFFFFF" d="M819.342,1828.557v58.396l-73.497-90.379h41.515
		C805.024,1796.573,819.342,1810.893,819.342,1828.557z"/>
	<polygon fill="#FF435A" points="819.342,1836.5 819.342,1853.251 773.35,1796.573 777.888,1796.573 	"/>
</g>
<g>
	<path fill="#EDEDED" d="M819.316,1061.902v95.939c0,17.663-14.319,31.982-31.982,31.982h-95.941
		c-17.663,0-31.982-14.318-31.982-31.982v-95.939c0-17.663,14.319-31.984,31.982-31.984h95.941
		C804.998,1029.918,819.316,1044.238,819.316,1061.902z"/>
	<g>
		<path fill="#FF435A" d="M739.364,1153.58c-24.102,0-43.71-19.608-43.71-43.71s19.608-43.71,43.71-43.71s43.71,19.608,43.71,43.71
			c0,7.38-1.873,14.673-5.417,21.091l-1.875,3.395l3.264,13.61l-11.689-4.166l-4.151,2.709
			C756.114,1151.135,747.87,1153.58,739.364,1153.58z"/>
		<path fill="#1D595E" d="M739.364,1076.16c18.588,0,33.71,15.122,33.71,33.71c0,5.775-1.403,11.244-4.171,16.256l-3.75,6.79
			l0.079,0.33l-7.491,4.887c-5.462,3.563-11.817,5.447-18.377,5.447c-18.588,0-33.71-15.122-33.71-33.71
			S720.776,1076.16,739.364,1076.16 M739.364,1056.16c-29.663,0-53.71,24.047-53.71,53.71c0,29.663,24.047,53.71,53.71,53.71
			c10.813,0,20.878-3.198,29.305-8.696l24.405,8.696l-6.663-27.785c4.245-7.687,6.663-16.523,6.663-25.925
			C793.074,1080.207,769.027,1056.16,739.364,1056.16L739.364,1056.16z"/>
	</g>
	<polyline opacity="0.6" fill="#FFFFFF" points="659.412,1129.534 708.48,1189.823 756.045,1189.823 659.412,1078.987 	"/>
	<polyline fill="#EDEDED" points="724.37,1189.823 670.708,1123.695 739.364,1189.823 	"/>
	<path opacity="0.6" fill="#FFFFFF" d="M819.316,1061.902v58.396l-73.497-90.379h41.515
		C804.998,1029.918,819.316,1044.238,819.316,1061.902z"/>
	<polygon fill="#EDEDED" points="819.316,1069.845 819.316,1086.595 773.324,1029.918 777.862,1029.918 	"/>
</g>
<g>
	<path fill="#FFEE99" d="M1337.253,1061.902v95.939c0,17.663-14.318,31.982-31.982,31.982h-95.941
		c-17.663,0-31.982-14.318-31.982-31.982v-95.939c0-17.663,14.319-31.984,31.982-31.984h95.941
		C1322.935,1029.918,1337.253,1044.238,1337.253,1061.902z"/>
	<path fill="#1D595E" d="M1202.83,1156.734c0,0-8.952-9.924,5.874-24.75c14.826-14.826,25.236-6.36,25.236-6.36
		c23.435,10.796,35.848-4.011,35.849-4.011c0.001,0,14.807-12.414,4.011-35.849c0,0-8.466-10.41,6.36-25.236
		c14.826-14.826,24.75-5.874,24.75-5.874s30.095,22.318-24.833,77.247C1225.148,1186.83,1202.83,1156.734,1202.83,1156.734z"/>
	<polyline opacity="0.6" fill="#FFFFFF" points="1177.348,1129.534 1226.417,1189.823 1273.982,1189.823 1177.348,1078.987 	"/>
	<polyline fill="#FFEE99" points="1242.306,1189.823 1188.645,1123.695 1257.301,1189.823 	"/>
	<path opacity="0.6" fill="#FFFFFF" d="M1337.253,1061.902v58.396l-73.496-90.379h41.515
		C1322.935,1029.918,1337.253,1044.238,1337.253,1061.902z"/>
	<polygon fill="#FFEE99" points="1337.253,1069.845 1337.253,1086.595 1291.26,1029.918 1295.799,1029.918 	"/>
</g>
<polygon fill="#1D595E" points="1368.224,372.586 1240.619,372.586 1240.619,390.402 1210.219,449.918 1212.326,530.732 
	1235.5,530.732 1244.98,449.918 1286.129,449.918 1312.396,530.732 1337.677,530.732 1329.25,449.918 1368.224,390.402 "/>
<polyline fill="#FFFFFF" points="1244.98,449.918 1294.489,423.294 1286.129,449.918 1268.154,468.443 "/>
<polyline fill="#1D595E" points="1212.326,530.732 1183.183,550.254 1183.183,557.628 1221.455,557.628 1224.615,552.712 
	1228.478,557.628 1235.5,557.628 1235.5,530.732 "/>
<polyline fill="#1D595E" points="1312.747,530.732 1283.604,550.254 1283.604,557.628 1321.876,557.628 1325.036,552.712 
	1328.899,557.628 1335.921,557.628 1335.921,530.732 "/>
<polygon fill="#FFFFFF" points="1240.619,372.586 1240.619,291.477 1222.86,320.971 1192.312,300.957 1227.073,237.755 
	1306.427,220.199 1398.421,259.525 1412.466,320.62 1379.46,322.024 1362.958,288.317 1368.224,372.586 "/>
<polyline fill="#1D595E" points="1297.737,248.64 1289.222,301.659 1302.851,339.229 1321.174,317.46 1307.831,248.64 "/>
<path fill="#FF435A" d="M1196.467,303.68c0,0-12.758,50.473,12.874,53.633c25.632,3.16,48.279-20.014,48.279-20.014
	s16.854,1.58,12.114-19.487c-4.74-21.067-23.701-10.534-27.388,3.687c-3.687,14.22-32.128,8.954-23.701-8.954"/>
<polyline fill="#1D595E" points="1289.222,325.711 1257.621,288.317 1249.194,296.393 1280.795,343.092 "/>
<path fill="#FF435A" d="M1385.429,321.696c0,0-24.93,45.975-77.423,7.351c0,0-6.145-21.067-15.274-19.663
	c-9.129,1.405-23.876,21.77-5.267,30.899c18.609,9.129,90.839,46.771,118.278-19.452"/>
<polyline fill="#FF435A" points="1278.514,192.46 1289.222,239.862 1316.961,239.862 1316.961,191.407 "/>
<polygon fill="#FF435A" points="1294.489,134.174 1253.407,148.219 1257.27,220.199 1302.389,227.573 1351.019,211.07 
	1344.699,149.974 "/>
<polygon fill="#FFFFFF" points="1344.699,149.974 1229.18,165.424 1247.087,154.539 1255.865,121.534 1289.222,107.84 
	1337.677,126.098 "/>
<path fill="#FF435A" d="M1339.783,168.935c0,0,17.556-5.267,19.312,5.969c1.756,11.236-6.32,26.685-19.312,23.174"/>
<ellipse fill="#1D595E" cx="1318.716" cy="174.717" rx="4.565" ry="8.427"/>
<ellipse fill="#1D595E" cx="1278.514" cy="174.717" rx="4.565" ry="8.427"/>
<ellipse fill="#FFFFFF" cx="1275.704" cy="172.771" rx="1.755" ry="3.24"/>
<ellipse fill="#FFFFFF" cx="1315.907" cy="172.771" rx="1.755" ry="3.24"/>
<path fill="#FFFFFF" d="M1279.566,205.71c0,0,30.372,6.32,41.608-16.152c0,0,5.618,8.778-5.267,21.77v-7.725
	C1315.907,203.603,1304.32,213.084,1279.566,205.71z"/>
<polyline fill="#1D595E" points="1293.084,239.511 1297.737,248.64 1307.831,248.64 1314.151,238.457 "/>
<path fill="#FF8095" d="M1292.561,173.313c0,0-2.807,12.289-15.975,15.801c-13.168,3.511,15.624,11.587,23.7,2.458"/>
<polygon fill="#EDEDED" points="1286.446,227.573 1283.078,244.778 1302.389,239.862 1322.623,244.075 1316.961,224.702 
	1301.862,233.542 "/>
<path fill="#FFEE99" d="M1326.001,152.475"/>
<polyline fill="#1D595E" points="1327.494,152.475 1342.129,178.415 1346.533,167.702 1344.699,149.974 "/>
<polyline fill="#1D595E" points="1262.826,160.924 1255.028,178.415 1253.407,162.184 "/>
<circle fill="#1D595E" cx="1264.508" cy="319.023" r="9.967"/>
<path fill="#1D595E" d="M1253.407,293.935c0,0-153.792-101.389-282.303-141.46C971.105,152.475,1112.607,187.193,1253.407,293.935z"
	/>
<path fill="none" stroke="#1D595E" stroke-miterlimit="10" d="M1253.407,293.935c-101.474-110.791-282.303-141.46-282.303-141.46"/>
<ellipse fill="none" stroke="#1D595E" stroke-miterlimit="10" cx="1231.934" cy="275.032" rx="2.796" ry="4.822"/>
<ellipse fill="none" stroke="#1D595E" stroke-miterlimit="10" cx="1213.015" cy="259.924" rx="2.796" ry="4.822"/>
<ellipse fill="none" stroke="#1D595E" stroke-miterlimit="10" cx="1190.497" cy="244.778" rx="2.796" ry="4.822"/>
<ellipse fill="none" stroke="#1D595E" stroke-miterlimit="10" cx="1165.838" cy="229.524" rx="2.796" ry="4.822"/>
<ellipse fill="none" stroke="#1D595E" stroke-miterlimit="10" cx="1132.593" cy="211.328" rx="2.796" ry="4.822"/>
<ellipse fill="none" stroke="#1D595E" stroke-miterlimit="10" cx="1104.295" cy="198.586" rx="2.796" ry="4.822"/>
<ellipse fill="none" stroke="#1D595E" stroke-miterlimit="10" cx="1075.775" cy="185.695" rx="2.796" ry="4.822"/>
<ellipse fill="none" stroke="#1D595E" stroke-miterlimit="10" cx="1050.548" cy="176.051" rx="2.796" ry="4.822"/>
<line fill="none" stroke="#154344" stroke-width="3" stroke-miterlimit="10" x1="988.677" y1="516.512" x2="988.677" y2="544.952"/>
<rect x="868.928" y="1750.391" fill="#4ABCB9" width="259.128" height="259.128"/>
<rect x="1128.057" y="1750.391" fill="none" width="259.128" height="259.128"/>
<rect x="609.8" y="1493.696" fill="#4ABCB9" width="259.128" height="259.128"/>
<rect x="868.928" y="1493.696" fill="none" width="259.128" height="259.128"/>
<rect x="609.8" y="1237.001" fill="none" width="259.128" height="259.128"/>
<rect x="1128.057" y="1237.001" fill="#4ABCB9" width="259.128" height="259.128"/>
<rect x="868.928" y="980.306" fill="#4ABCB9" width="259.128" height="259.128"/>
<rect x="609.8" y="723.611" fill="#4ABCB9" width="259.128" height="259.128"/>
<rect x="1128.057" y="723.611" fill="#379393" width="259.128" height="259.128"/>
<rect x="609.8" y="600.985" fill="#1D595E" width="259.128" height="125.06"/>
<rect x="868.928" y="600.985" fill="#379393" width="259.128" height="125.06"/>
<rect x="1128.057" y="600.985" fill="#4ABCB9" width="259.128" height="125.06"/>
<line fill="none" stroke="#154344" stroke-width="3" stroke-miterlimit="10" x1="988.677" y1="601.84" x2="988.677" y2="748.624"/>
<line fill="none" stroke="#D1D1D1" stroke-width="3" stroke-miterlimit="10" x1="988.677" y1="544.952" x2="988.677" y2="601.84"/>
<line fill="none" stroke="#D1D1D1" stroke-width="3" stroke-miterlimit="10" x1="988.677" y1="390.402" x2="988.677" y2="516.512"/>
<line fill="none" stroke="#FFFFFF" stroke-width="3" stroke-miterlimit="10" x1="971.105" y1="132.475" x2="971.105" y2="748.624"/>
<path fill="#FFFFFF" d="M351.637,272.963c9.108,0,17.456,3.252,23.948,8.656c3.631-41.345,38.339-73.775,80.627-73.775
	c6.027,0,11.899,0.664,17.55,1.914c2.392-30.455,27.861-54.423,58.93-54.423c32.649,0,59.115,26.467,59.115,59.115
	c0,7.305-1.328,14.299-3.751,20.758c0.275-0.008,0.549-0.021,0.826-0.021c16.378,0,29.656,13.277,29.656,29.656
	c0,3.374-0.571,6.613-1.61,9.635c7.296-7.026,17.215-11.347,28.144-11.347c22.413,0,40.581,18.169,40.581,40.581H314.778
	C317.94,286.226,333.239,272.963,351.637,272.963z"/>
<path fill="#FFFFFF" d="M1709.26,1146.659c9.108,0,17.456,3.252,23.948,8.656c3.631-41.345,38.339-73.775,80.627-73.775
	c6.027,0,11.899,0.664,17.55,1.914c2.392-30.455,27.861-54.423,58.93-54.423c32.649,0,59.115,26.467,59.115,59.115
	c0,7.305-1.328,14.299-3.751,20.758c0.275-0.008,0.549-0.021,0.826-0.021c16.378,0,29.656,13.277,29.656,29.656
	c0,3.374-0.571,6.613-1.609,9.635c7.296-7.026,17.215-11.347,28.144-11.347c22.412,0,40.581,18.169,40.581,40.581H1672.4
	C1675.562,1159.922,1690.862,1146.659,1709.26,1146.659z"/>
<path fill="#FFFFFF" d="M1582.471,249.433c6.13,0,11.747,2.188,16.117,5.825c2.444-27.825,25.802-49.649,54.261-49.649
	c4.056,0,8.008,0.447,11.811,1.288c1.61-20.496,18.75-36.626,39.66-36.626c21.972,0,39.784,17.812,39.784,39.784
	c0,4.916-0.894,9.623-2.525,13.97c0.185-0.005,0.369-0.014,0.556-0.014c11.022,0,19.958,8.935,19.958,19.958
	c0,2.271-0.385,4.451-1.083,6.484c4.91-4.728,11.585-7.637,18.94-7.637c15.083,0,27.311,12.227,27.311,27.311h-249.596
	C1559.793,258.359,1570.089,249.433,1582.471,249.433z"/>
<path fill="#FFFFFF" d="M182.471,1185.993c6.13,0,11.747,2.188,16.117,5.825c2.444-27.825,25.802-49.649,54.261-49.649
	c4.056,0,8.008,0.447,11.811,1.288c1.61-20.496,18.75-36.626,39.659-36.626c21.972,0,39.784,17.812,39.784,39.784
	c0,4.916-0.894,9.623-2.525,13.97c0.185-0.005,0.369-0.014,0.556-0.014c11.022,0,19.958,8.936,19.958,19.958
	c0,2.271-0.385,4.451-1.083,6.484c4.91-4.728,11.585-7.636,18.94-7.636c15.083,0,27.311,12.227,27.311,27.311H157.665
	C159.793,1194.919,170.089,1185.993,182.471,1185.993z"/>
<path fill="#FFEE99" d="M731.122,877.548c-7.757,0-14.867,2.769-20.397,7.372c-3.092-35.214-32.653-62.834-68.67-62.834
	c-5.133,0-10.134,0.566-14.948,1.63c-2.037-25.938-23.729-46.352-50.191-46.352c-27.807,0-50.349,22.542-50.349,50.349
	c0,6.222,1.132,12.178,3.195,17.68c-0.234-0.006-0.467-0.018-0.703-0.018c-13.95,0-25.258,11.308-25.258,25.258
	c0,2.874,0.487,5.633,1.371,8.206c-6.214-5.984-14.662-9.664-23.97-9.664c-19.089,0-34.563,15.475-34.563,34.563h315.876
	C759.822,888.845,746.792,877.548,731.122,877.548z"/>
<path fill="#FFEE99" d="M1582.675,637.982c-7.757,0-14.867,2.769-20.397,7.372c-3.093-35.214-32.653-62.834-68.67-62.834
	c-5.133,0-10.134,0.566-14.948,1.63c-2.037-25.938-23.729-46.352-50.191-46.352c-27.807,0-50.349,22.542-50.349,50.349
	c0,6.222,1.132,12.178,3.195,17.68c-0.234-0.006-0.467-0.018-0.703-0.018c-13.95,0-25.258,11.308-25.258,25.258
	c0,2.874,0.487,5.633,1.371,8.206c-6.214-5.984-14.662-9.664-23.97-9.664c-19.089,0-34.563,15.475-34.563,34.563h315.876
	C1611.375,649.278,1598.345,637.982,1582.675,637.982z"/>
</svg>
